<svg xmlns="http://www.w3.org/2000/svg" width="1000" height="420" fill="none"><path fill="#262838" d="M0 0h1000v420H0z"/><path fill="#C1B7BB" d="M86.938 69.4c0 2.412.27 4.512.81 6.3a16.13 16.13 0 002.484 4.95c1.128 1.5 2.55 3.042 4.266 4.626l-1.872 1.872c-1.944-1.596-3.612-3.24-5.004-4.932a19.092 19.092 0 01-3.186-5.634c-.732-2.076-1.098-4.47-1.098-7.182 0-2.712.366-5.1 1.098-7.164a19.035 19.035 0 013.186-5.652c1.392-1.692 3.06-3.336 5.004-4.932l1.872 1.872c-1.716 1.572-3.132 3.108-4.248 4.608a16.175 16.175 0 00-2.502 4.95c-.54 1.788-.81 3.894-.81 6.318zm518.063 0c0 2.412.27 4.512.81 6.3a16.13 16.13 0 002.484 4.95c1.128 1.5 2.55 3.042 4.266 4.626l-1.872 1.872c-1.944-1.596-3.612-3.24-5.004-4.932a19.092 19.092 0 01-3.186-5.634c-.732-2.076-1.098-4.47-1.098-7.182 0-2.712.366-5.1 1.098-7.164a19.035 19.035 0 013.186-5.652c1.392-1.692 3.06-3.336 5.004-4.932l1.872 1.872c-1.716 1.572-3.132 3.108-4.249 4.608a16.195 16.195 0 00-2.501 4.95c-.54 1.788-.81 3.894-.81 6.318zm31.071 8.244c0 .756.12 1.308.36 1.656.24.336.618.588 1.134.756l-.81 2.376c-.864-.108-1.62-.366-2.268-.774-.636-.408-1.104-1.032-1.404-1.872a6.355 6.355 0 01-2.592 1.998c-1.044.444-2.178.666-3.402.666-1.908 0-3.414-.54-4.518-1.62-1.104-1.08-1.656-2.502-1.656-4.266 0-1.968.768-3.48 2.304-4.536 1.548-1.068 3.768-1.602 6.66-1.602h2.754v-1.44c0-1.308-.39-2.238-1.17-2.79-.768-.552-1.842-.828-3.222-.828-.636 0-1.386.078-2.25.234-.852.156-1.764.402-2.736.738l-.882-2.52a18.606 18.606 0 013.366-.954 17.336 17.336 0 013.024-.288c2.436 0 4.26.558 5.472 1.674 1.224 1.116 1.836 2.634 1.836 4.554v8.838zm-8.01 2.214c.876 0 1.722-.228 2.538-.684a5.63 5.63 0 002.034-1.908v-4.59h-2.52c-2.004 0-3.426.342-4.266 1.026-.84.672-1.26 1.596-1.26 2.772 0 2.256 1.158 3.384 3.474 3.384zm40.652-14.454c.672-.888 1.458-1.578 2.358-2.07a6.04 6.04 0 012.97-.756c1.68 0 3.042.414 4.086 1.242 1.044.816 1.806 1.968 2.286 3.456.48 1.476.72 3.216.72 5.22 0 1.92-.288 3.63-.864 5.13-.576 1.5-1.422 2.682-2.538 3.546-1.116.852-2.49 1.278-4.122 1.278-2.172 0-3.87-.792-5.094-2.376L668.3 82h-3.042V55.396l3.456-.414v10.422zm4.05 14.328c1.488 0 2.634-.588 3.438-1.764.816-1.188 1.224-3.012 1.224-5.472 0-2.46-.366-4.272-1.098-5.436-.72-1.176-1.764-1.764-3.132-1.764-.984 0-1.854.3-2.61.9a8.253 8.253 0 00-1.872 2.016v9.18c.48.72 1.068 1.29 1.764 1.71.696.42 1.458.63 2.286.63zM697.068 69.4c0-2.424-.276-4.53-.828-6.318-.54-1.8-1.368-3.45-2.484-4.95-1.116-1.5-2.532-3.036-4.248-4.608l1.872-1.872c1.944 1.596 3.606 3.24 4.986 4.932a18.521 18.521 0 013.186 5.652c.744 2.064 1.116 4.452 1.116 7.164 0 2.712-.372 5.106-1.116 7.182a18.574 18.574 0 01-3.186 5.634c-1.38 1.692-3.042 3.336-4.986 4.932l-1.872-1.872c1.716-1.584 3.132-3.126 4.248-4.626a15.915 15.915 0 002.502-4.95c.54-1.788.81-3.888.81-6.3zm-566.958 141c0 2.412.27 4.512.81 6.3a16.13 16.13 0 002.484 4.95c1.128 1.5 2.55 3.042 4.266 4.626l-1.872 1.872c-1.944-1.596-3.612-3.24-5.004-4.932a19.092 19.092 0 01-3.186-5.634c-.732-2.076-1.098-4.47-1.098-7.182 0-2.712.366-5.1 1.098-7.164a19.035 19.035 0 013.186-5.652c1.392-1.692 3.06-3.336 5.004-4.932l1.872 1.872c-1.716 1.572-3.132 3.108-4.248 4.608a16.175 16.175 0 00-2.502 4.95c-.54 1.788-.81 3.894-.81 6.318zm264.755 0c0-2.424-.276-4.53-.828-6.318-.54-1.8-1.368-3.45-2.484-4.95-1.116-1.5-2.532-3.036-4.248-4.608l1.872-1.872c1.944 1.596 3.606 3.24 4.986 4.932a18.521 18.521 0 013.186 5.652c.744 2.064 1.116 4.452 1.116 7.164 0 2.712-.372 5.106-1.116 7.182a18.574 18.574 0 01-3.186 5.634c-1.38 1.692-3.042 3.336-4.986 4.932l-1.872-1.872c1.716-1.584 3.132-3.126 4.248-4.626a15.915 15.915 0 002.502-4.95c.54-1.788.81-3.888.81-6.3zm-264.755 47c0 2.412.27 4.512.81 6.3a16.13 16.13 0 002.484 4.95c1.128 1.5 2.55 3.042 4.266 4.626l-1.872 1.872c-1.944-1.596-3.612-3.24-5.004-4.932a19.092 19.092 0 01-3.186-5.634c-.732-2.076-1.098-4.47-1.098-7.182 0-2.712.366-5.1 1.098-7.164a19.035 19.035 0 013.186-5.652c1.392-1.692 3.06-3.336 5.004-4.932l1.872 1.872c-1.716 1.572-3.132 3.108-4.248 4.608a16.175 16.175 0 00-2.502 4.95c-.54 1.788-.81 3.894-.81 6.318zm129.516 0c0 2.412.27 4.512.81 6.3a16.13 16.13 0 002.484 4.95c1.128 1.5 2.55 3.042 4.266 4.626l-1.872 1.872c-1.944-1.596-3.612-3.24-5.004-4.932a19.092 19.092 0 01-3.186-5.634c-.732-2.076-1.098-4.47-1.098-7.182 0-2.712.366-5.1 1.098-7.164a19.035 19.035 0 013.186-5.652c1.392-1.692 3.06-3.336 5.004-4.932l1.872 1.872c-1.716 1.572-3.132 3.108-4.248 4.608a16.175 16.175 0 00-2.502 4.95c-.54 1.788-.81 3.894-.81 6.318zm19.875 4.284c.096 2.088.66 3.606 1.692 4.554 1.044.948 2.28 1.422 3.708 1.422.948 0 1.818-.144 2.61-.432.792-.288 1.596-.708 2.412-1.26l1.566 2.178c-.888.708-1.914 1.272-3.078 1.692a10.86 10.86 0 01-3.618.612c-1.896 0-3.51-.414-4.842-1.242-1.32-.84-2.328-2.004-3.024-3.492-.684-1.488-1.026-3.216-1.026-5.184 0-1.908.342-3.612 1.026-5.112.696-1.5 1.674-2.682 2.934-3.546 1.26-.864 2.76-1.296 4.5-1.296 2.448 0 4.374.84 5.778 2.52 1.416 1.668 2.124 3.954 2.124 6.858 0 .324-.006.636-.018.936-.012.3-.03.564-.054.792h-12.69zm4.896-8.406c-1.356 0-2.478.48-3.366 1.44-.888.96-1.398 2.442-1.53 4.446h9.432c-.036-1.92-.456-3.378-1.26-4.374-.792-1.008-1.884-1.512-3.276-1.512zm20.218-2.7c2.172 0 3.9.81 5.184 2.43l.252-1.98h2.97v26.658l-3.456-.414v-9.54c-.672.924-1.458 1.608-2.358 2.052a6.389 6.389 0 01-2.898.666c-1.692 0-3.054-.408-4.086-1.224-1.02-.828-1.758-1.986-2.214-3.474-.456-1.488-.684-3.228-.684-5.22 0-1.92.276-3.624.828-5.112.564-1.5 1.386-2.682 2.466-3.546 1.08-.864 2.412-1.296 3.996-1.296zm.864 2.718c-3 0-4.5 2.412-4.5 7.236 0 2.436.348 4.236 1.044 5.4.696 1.152 1.728 1.728 3.096 1.728.984 0 1.848-.276 2.592-.828a7.459 7.459 0 001.854-1.98v-9.27c-.48-.72-1.068-1.278-1.764-1.674a4.506 4.506 0 00-2.322-.612zm49.976 12.348c0 .756.12 1.308.36 1.656.24.336.618.588 1.134.756l-.81 2.376c-.864-.108-1.62-.366-2.268-.774-.636-.408-1.104-1.032-1.404-1.872a6.355 6.355 0 01-2.592 1.998c-1.044.444-2.178.666-3.402.666-1.908 0-3.414-.54-4.518-1.62-1.104-1.08-1.656-2.502-1.656-4.266 0-1.968.768-3.48 2.304-4.536 1.548-1.068 3.768-1.602 6.66-1.602h2.754v-1.44c0-1.308-.39-2.238-1.17-2.79-.768-.552-1.842-.828-3.222-.828-.636 0-1.386.078-2.25.234-.852.156-1.764.402-2.736.738l-.882-2.52a18.606 18.606 0 013.366-.954 17.336 17.336 0 013.024-.288c2.436 0 4.26.558 5.472 1.674 1.224 1.116 1.836 2.634 1.836 4.554v8.838zm-8.01 2.214c.876 0 1.722-.228 2.538-.684a5.63 5.63 0 002.034-1.908v-4.59h-2.52c-2.004 0-3.426.342-4.266 1.026-.84.672-1.26 1.596-1.26 2.772 0 2.256 1.158 3.384 3.474 3.384zm40.652-14.454c.672-.888 1.458-1.578 2.358-2.07a6.04 6.04 0 012.97-.756c1.68 0 3.042.414 4.086 1.242 1.044.816 1.806 1.968 2.286 3.456.48 1.476.72 3.216.72 5.22 0 1.92-.288 3.63-.864 5.13-.576 1.5-1.422 2.682-2.538 3.546-1.116.852-2.49 1.278-4.122 1.278-2.172 0-3.87-.792-5.094-2.376l-.216 1.926h-3.042v-26.604l3.456-.414v10.422zm4.05 14.328c1.488 0 2.634-.588 3.438-1.764.816-1.188 1.224-3.012 1.224-5.472 0-2.46-.366-4.272-1.098-5.436-.72-1.176-1.764-1.764-3.132-1.764-.984 0-1.854.3-2.61.9a8.253 8.253 0 00-1.872 2.016v9.18c.48.72 1.068 1.29 1.764 1.71.696.42 1.458.63 2.286.63zm24.304-10.332c0-2.424-.276-4.53-.828-6.318-.54-1.8-1.368-3.45-2.484-4.95-1.116-1.5-2.532-3.036-4.248-4.608l1.872-1.872c1.944 1.596 3.606 3.24 4.986 4.932a18.521 18.521 0 013.186 5.652c.744 2.064 1.116 4.452 1.116 7.164 0 2.712-.372 5.106-1.116 7.182a18.574 18.574 0 01-3.186 5.634c-1.38 1.692-3.042 3.336-4.986 4.932l-1.872-1.872c1.716-1.584 3.132-3.126 4.248-4.626a15.915 15.915 0 002.502-4.95c.54-1.788.81-3.888.81-6.3zm-243.169 47c0 2.412.27 4.512.81 6.3a16.13 16.13 0 002.484 4.95c1.128 1.5 2.55 3.042 4.266 4.626l-1.872 1.872c-1.944-1.596-3.612-3.24-5.004-4.932a19.092 19.092 0 01-3.186-5.634c-.732-2.076-1.098-4.47-1.098-7.182 0-2.712.366-5.1 1.098-7.164a19.035 19.035 0 013.186-5.652c1.392-1.692 3.06-3.336 5.004-4.932l1.872 1.872c-1.716 1.572-3.132 3.108-4.248 4.608a16.175 16.175 0 00-2.502 4.95c-.54 1.788-.81 3.894-.81 6.318zm28.354-14.418l3.456.414V317h-3.042l-.288-2.43c-1.344 1.92-3.132 2.88-5.364 2.88-1.632 0-2.982-.414-4.05-1.242-1.056-.84-1.842-2.004-2.358-3.492s-.774-3.216-.774-5.184c0-1.92.294-3.624.882-5.112.6-1.5 1.452-2.682 2.556-3.546 1.116-.864 2.46-1.296 4.032-1.296 2.04 0 3.69.72 4.95 2.16v-9.756zm-4.05 10.314c-1.488 0-2.64.594-3.456 1.782-.804 1.188-1.206 3.006-1.206 5.454 0 2.436.366 4.242 1.098 5.418.744 1.176 1.812 1.764 3.204 1.764.996 0 1.854-.282 2.574-.846a8.138 8.138 0 001.836-2.016v-9.27c-.492-.72-1.086-1.278-1.782-1.674a4.344 4.344 0 00-2.268-.612zm21.766-2.718c2.712 0 4.77.9 6.174 2.7 1.416 1.8 2.124 4.206 2.124 7.218 0 1.956-.324 3.684-.972 5.184-.636 1.5-1.572 2.67-2.808 3.51-1.236.84-2.754 1.26-4.554 1.26-2.712 0-4.782-.9-6.21-2.7-1.416-1.8-2.124-4.206-2.124-7.218 0-1.968.318-3.696.954-5.184.648-1.5 1.59-2.67 2.826-3.51 1.248-.84 2.778-1.26 4.59-1.26zm0 2.754c-1.56 0-2.736.588-3.528 1.764-.792 1.164-1.188 2.976-1.188 5.436 0 2.436.39 4.242 1.17 5.418.78 1.164 1.95 1.746 3.51 1.746 1.56 0 2.73-.582 3.51-1.746.78-1.176 1.17-2.994 1.17-5.454 0-2.448-.39-4.254-1.17-5.418-.78-1.164-1.938-1.746-3.474-1.746zm14.242 8.298v-2.916h14.616v2.916h-14.616zm28.174 6.066c1.38 0 2.466-.252 3.258-.756.804-.504 1.206-1.188 1.206-2.052 0-.552-.108-1.02-.324-1.404-.204-.396-.636-.756-1.296-1.08-.648-.336-1.632-.672-2.952-1.008-1.296-.324-2.424-.702-3.384-1.134-.948-.432-1.686-.996-2.214-1.692-.516-.696-.774-1.596-.774-2.7 0-1.608.672-2.892 2.016-3.852 1.344-.96 3.126-1.44 5.346-1.44 1.56 0 2.916.21 4.068.63 1.152.408 2.136.912 2.952 1.512l-1.476 2.25a11.28 11.28 0 00-2.412-1.188c-.864-.324-1.884-.486-3.06-.486-1.404 0-2.406.216-3.006.648-.588.42-.882.978-.882 1.674 0 .528.144.966.432 1.314.3.336.81.648 1.53.936.72.276 1.716.588 2.988.936 1.236.336 2.316.732 3.24 1.188.924.456 1.638 1.056 2.142 1.8.516.732.774 1.698.774 2.898 0 1.356-.39 2.46-1.17 3.312-.78.84-1.794 1.458-3.042 1.854-1.236.396-2.556.594-3.96.594-1.728 0-3.216-.252-4.464-.756-1.236-.504-2.274-1.122-3.114-1.854l1.908-2.196a9.317 9.317 0 002.538 1.494 8.688 8.688 0 003.132.558zm22.341-17.118c2.712 0 4.77.9 6.174 2.7 1.416 1.8 2.124 4.206 2.124 7.218 0 1.956-.324 3.684-.972 5.184-.636 1.5-1.572 2.67-2.808 3.51-1.236.84-2.754 1.26-4.554 1.26-2.712 0-4.782-.9-6.21-2.7-1.416-1.8-2.124-4.206-2.124-7.218 0-1.968.318-3.696.954-5.184.648-1.5 1.59-2.67 2.826-3.51 1.248-.84 2.778-1.26 4.59-1.26zm0 2.754c-1.56 0-2.736.588-3.528 1.764-.792 1.164-1.188 2.976-1.188 5.436 0 2.436.39 4.242 1.17 5.418.78 1.164 1.95 1.746 3.51 1.746 1.56 0 2.73-.582 3.51-1.746.78-1.176 1.17-2.994 1.17-5.454 0-2.448-.39-4.254-1.17-5.418-.78-1.164-1.938-1.746-3.474-1.746zm26.95-2.754a3.94 3.94 0 011.818.432c.576.288 1.038.816 1.386 1.584.348.756.522 1.854.522 3.294V317h-3.15v-13.608c0-1.104-.072-1.896-.216-2.376-.132-.492-.516-.738-1.152-.738-.528 0-1.056.162-1.584.486-.516.324-1.02.864-1.512 1.62V317h-3.024v-13.608c0-1.104-.072-1.896-.216-2.376-.132-.492-.516-.738-1.152-.738-.54 0-1.068.162-1.584.486-.516.324-1.02.864-1.512 1.62V317h-3.15v-18.972h2.664l.216 2.124a8.82 8.82 0 011.746-1.836c.648-.492 1.434-.738 2.358-.738.72 0 1.386.174 1.998.522.624.348 1.08.996 1.368 1.944.516-.732 1.104-1.326 1.764-1.782.66-.456 1.464-.684 2.412-.684zm11.614 11.106c.096 2.088.66 3.606 1.692 4.554 1.044.948 2.28 1.422 3.708 1.422.948 0 1.818-.144 2.61-.432.792-.288 1.596-.708 2.412-1.26l1.566 2.178c-.888.708-1.914 1.272-3.078 1.692a10.86 10.86 0 01-3.618.612c-1.896 0-3.51-.414-4.842-1.242-1.32-.84-2.328-2.004-3.024-3.492-.684-1.488-1.026-3.216-1.026-5.184 0-1.908.342-3.612 1.026-5.112.696-1.5 1.674-2.682 2.934-3.546 1.26-.864 2.76-1.296 4.5-1.296 2.448 0 4.374.84 5.778 2.52 1.416 1.668 2.124 3.954 2.124 6.858 0 .324-.006.636-.018.936-.012.3-.03.564-.054.792h-12.69zm4.896-8.406c-1.356 0-2.478.48-3.366 1.44-.888.96-1.398 2.442-1.53 4.446h9.432c-.036-1.92-.456-3.378-1.26-4.374-.792-1.008-1.884-1.512-3.276-1.512zm29.308 15.75c-.672.432-1.482.774-2.43 1.026a10.43 10.43 0 01-2.844.396c-2.112 0-3.732-.552-4.86-1.656-1.116-1.104-1.674-2.538-1.674-4.302V300.62h-4.302v-2.592h4.302v-4.284l3.456-.414v4.698h6.48l-.396 2.592h-6.084v10.836c0 1.044.264 1.83.792 2.358.54.528 1.434.792 2.682.792.696 0 1.338-.078 1.926-.234a7.83 7.83 0 001.656-.666l1.296 2.322zm9.634-25.974v10.44a7.417 7.417 0 012.718-2.178c1.068-.492 2.154-.738 3.258-.738 1.824 0 3.168.498 4.032 1.494.864.984 1.296 2.358 1.296 4.122V317h-3.456v-13.5c0-1.14-.246-1.962-.738-2.466-.48-.516-1.248-.774-2.304-.774-1.008 0-1.938.318-2.79.954-.84.636-1.512 1.326-2.016 2.07V317h-3.456v-26.568l3.456-.378zm25.492-1.098c.72 0 1.296.222 1.728.666.444.444.666.984.666 1.62 0 .66-.222 1.218-.666 1.674-.432.444-1.008.666-1.728.666-.708 0-1.284-.222-1.728-.666-.432-.456-.648-1.014-.648-1.674 0-.636.216-1.176.648-1.62.444-.444 1.02-.666 1.728-.666zm2.574 9.072v16.344h5.274V317h-14.508v-2.628h5.778v-13.716h-5.598v-2.628h9.054zM406.227 317v-18.972h2.97l.252 2.556a7.801 7.801 0 012.844-2.232c1.128-.516 2.25-.774 3.366-.774 1.824 0 3.168.498 4.032 1.494.864.984 1.296 2.358 1.296 4.122V317h-3.456v-11.682c0-1.2-.072-2.172-.216-2.916-.132-.744-.414-1.284-.846-1.62-.432-.348-1.086-.522-1.962-.522a4.54 4.54 0 00-2.808.954c-.84.636-1.512 1.32-2.016 2.052V317h-3.456zm37.246-21.168l1.008 3.06c-.792.252-1.644.414-2.556.486-.9.072-1.896.108-2.988.108 2.244 1.008 3.366 2.604 3.366 4.788 0 1.872-.648 3.414-1.944 4.626-1.284 1.212-3.066 1.818-5.346 1.818-.6 0-1.11-.024-1.53-.072-.42-.06-.822-.15-1.206-.27-.612.432-.918 1.008-.918 1.728 0 .42.168.78.504 1.08.336.288.99.432 1.962.432h3.366c1.308 0 2.472.228 3.492.684 1.032.456 1.842 1.08 2.43 1.872.588.78.882 1.662.882 2.646 0 1.884-.804 3.33-2.412 4.338-1.596 1.02-3.876 1.53-6.84 1.53-2.088 0-3.732-.216-4.932-.648-1.188-.432-2.034-1.074-2.538-1.926-.492-.852-.738-1.92-.738-3.204h3.114c0 .708.138 1.29.414 1.746.276.468.78.81 1.512 1.026.732.228 1.788.342 3.168.342 2.04 0 3.51-.252 4.41-.756.9-.504 1.35-1.242 1.35-2.214 0-.852-.378-1.5-1.134-1.944-.756-.432-1.722-.648-2.898-.648h-3.33c-1.704 0-2.958-.36-3.762-1.08-.792-.72-1.188-1.56-1.188-2.52 0-1.332.696-2.454 2.088-3.366-2.148-1.128-3.222-2.886-3.222-5.274 0-1.296.324-2.442.972-3.438.66-1.008 1.572-1.794 2.736-2.358 1.164-.564 2.502-.846 4.014-.846 1.572 0 2.862-.072 3.87-.216 1.008-.144 1.878-.348 2.61-.612a26.24 26.24 0 002.214-.918zm-8.676 4.194c-1.428 0-2.49.396-3.186 1.188-.684.78-1.026 1.782-1.026 3.006 0 1.248.354 2.262 1.062 3.042.708.78 1.782 1.17 3.222 1.17 1.272 0 2.244-.372 2.916-1.116.672-.744 1.008-1.788 1.008-3.132 0-2.772-1.332-4.158-3.996-4.158zm14.656 8.604v-2.916h14.616v2.916h-14.616zm30.352 5.904c.924 0 1.782-.15 2.574-.45a10.4 10.4 0 002.25-1.206l1.656 2.25c-.84.696-1.848 1.26-3.024 1.692-1.164.42-2.334.63-3.51.63-1.908 0-3.54-.408-4.896-1.224-1.344-.816-2.37-1.962-3.078-3.438-.708-1.476-1.062-3.204-1.062-5.184 0-1.92.354-3.63 1.062-5.13.72-1.512 1.758-2.706 3.114-3.582 1.356-.876 2.994-1.314 4.914-1.314 2.472 0 4.62.744 6.444 2.232l-1.638 2.25c-1.596-1.104-3.192-1.656-4.788-1.656-1.584 0-2.88.588-3.888 1.764-1.008 1.176-1.512 2.988-1.512 5.436 0 2.46.504 4.23 1.512 5.31 1.02 1.08 2.31 1.62 3.87 1.62zm20.164-16.956c2.712 0 4.77.9 6.174 2.7 1.416 1.8 2.124 4.206 2.124 7.218 0 1.956-.324 3.684-.972 5.184-.636 1.5-1.572 2.67-2.808 3.51-1.236.84-2.754 1.26-4.554 1.26-2.712 0-4.782-.9-6.21-2.7-1.416-1.8-2.124-4.206-2.124-7.218 0-1.968.318-3.696.954-5.184.648-1.5 1.59-2.67 2.826-3.51 1.248-.84 2.778-1.26 4.59-1.26zm0 2.754c-1.56 0-2.736.588-3.528 1.764-.792 1.164-1.188 2.976-1.188 5.436 0 2.436.39 4.242 1.17 5.418.78 1.164 1.95 1.746 3.51 1.746 1.56 0 2.73-.582 3.51-1.746.78-1.176 1.17-2.994 1.17-5.454 0-2.448-.39-4.254-1.17-5.418-.78-1.164-1.938-1.746-3.474-1.746zM514.157 317v-18.972h2.97l.252 2.556a7.801 7.801 0 012.844-2.232c1.128-.516 2.25-.774 3.366-.774 1.824 0 3.168.498 4.032 1.494.864.984 1.296 2.358 1.296 4.122V317h-3.456v-11.682c0-1.2-.072-2.172-.216-2.916-.132-.744-.414-1.284-.846-1.62-.432-.348-1.086-.522-1.962-.522a4.54 4.54 0 00-2.808.954c-.84.636-1.512 1.32-2.016 2.052V317h-3.456zm32.854-27.018l3.456.414V317h-3.042l-.288-2.43c-1.344 1.92-3.132 2.88-5.364 2.88-1.632 0-2.982-.414-4.05-1.242-1.056-.84-1.842-2.004-2.358-3.492s-.774-3.216-.774-5.184c0-1.92.294-3.624.882-5.112.6-1.5 1.452-2.682 2.556-3.546 1.116-.864 2.46-1.296 4.032-1.296 2.04 0 3.69.72 4.95 2.16v-9.756zm-4.05 10.314c-1.488 0-2.64.594-3.456 1.782-.804 1.188-1.206 3.006-1.206 5.454 0 2.436.366 4.242 1.098 5.418.744 1.176 1.812 1.764 3.204 1.764.996 0 1.854-.282 2.574-.846a8.138 8.138 0 001.836-2.016v-9.27c-.492-.72-1.086-1.278-1.782-1.674a4.344 4.344 0 00-2.268-.612zm21.73-11.34c.72 0 1.296.222 1.728.666.444.444.666.984.666 1.62 0 .66-.222 1.218-.666 1.674-.432.444-1.008.666-1.728.666-.708 0-1.284-.222-1.728-.666-.432-.456-.648-1.014-.648-1.674 0-.636.216-1.176.648-1.62.444-.444 1.02-.666 1.728-.666zm2.574 9.072v16.344h5.274V317h-14.508v-2.628h5.778v-13.716h-5.598v-2.628h9.054zm27.058 18c-.672.432-1.482.774-2.43 1.026a10.43 10.43 0 01-2.844.396c-2.112 0-3.732-.552-4.86-1.656-1.116-1.104-1.674-2.538-1.674-4.302V300.62h-4.302v-2.592h4.302v-4.284l3.456-.414v4.698h6.48l-.396 2.592h-6.084v10.836c0 1.044.264 1.83.792 2.358.54.528 1.434.792 2.682.792.696 0 1.338-.078 1.926-.234a7.83 7.83 0 001.656-.666l1.296 2.322zm13.54-27.072c.72 0 1.296.222 1.728.666.444.444.666.984.666 1.62 0 .66-.222 1.218-.666 1.674-.432.444-1.008.666-1.728.666-.708 0-1.284-.222-1.728-.666-.432-.456-.648-1.014-.648-1.674 0-.636.216-1.176.648-1.62.444-.444 1.02-.666 1.728-.666zm2.574 9.072v16.344h5.274V317h-14.508v-2.628h5.777v-13.716h-5.597v-2.628h9.054zm19.047-.45c2.712 0 4.77.9 6.174 2.7 1.416 1.8 2.124 4.206 2.124 7.218 0 1.956-.324 3.684-.972 5.184-.636 1.5-1.572 2.67-2.808 3.51-1.236.84-2.754 1.26-4.554 1.26-2.712 0-4.782-.9-6.21-2.7-1.416-1.8-2.124-4.206-2.124-7.218 0-1.968.318-3.696.954-5.184.648-1.5 1.59-2.67 2.826-3.51 1.248-.84 2.778-1.26 4.59-1.26zm0 2.754c-1.56 0-2.736.588-3.528 1.764-.792 1.164-1.188 2.976-1.188 5.436 0 2.436.39 4.242 1.17 5.418.78 1.164 1.95 1.746 3.51 1.746 1.56 0 2.73-.582 3.51-1.746.78-1.176 1.17-2.994 1.17-5.454 0-2.448-.39-4.254-1.17-5.418-.78-1.164-1.938-1.746-3.474-1.746zM643.672 317v-18.972h2.97l.252 2.556a7.801 7.801 0 012.844-2.232c1.128-.516 2.25-.774 3.366-.774 1.824 0 3.168.498 4.032 1.494.864.984 1.296 2.358 1.296 4.122V317h-3.456v-11.682c0-1.2-.072-2.172-.216-2.916-.132-.744-.414-1.284-.846-1.62-.432-.348-1.086-.522-1.962-.522a4.54 4.54 0 00-2.808.954c-.84.636-1.512 1.32-2.016 2.052V317h-3.456zm35.572-4.356c0 .756.12 1.308.36 1.656.24.336.618.588 1.134.756l-.81 2.376c-.864-.108-1.62-.366-2.268-.774-.636-.408-1.104-1.032-1.404-1.872a6.355 6.355 0 01-2.592 1.998c-1.044.444-2.178.666-3.402.666-1.908 0-3.414-.54-4.518-1.62-1.104-1.08-1.656-2.502-1.656-4.266 0-1.968.768-3.48 2.304-4.536 1.548-1.068 3.768-1.602 6.66-1.602h2.754v-1.44c0-1.308-.39-2.238-1.17-2.79-.768-.552-1.842-.828-3.222-.828-.636 0-1.386.078-2.25.234-.852.156-1.764.402-2.736.738l-.882-2.52a18.606 18.606 0 013.366-.954 17.336 17.336 0 013.024-.288c2.436 0 4.26.558 5.472 1.674 1.224 1.116 1.836 2.634 1.836 4.554v8.838zm-8.01 2.214c.876 0 1.722-.228 2.538-.684a5.63 5.63 0 002.034-1.908v-4.59h-2.52c-2.004 0-3.426.342-4.266 1.026-.84.672-1.26 1.596-1.26 2.772 0 2.256 1.158 3.384 3.474 3.384zm23.404-24.462v21.708c0 .912.282 1.56.846 1.944.564.372 1.29.558 2.178.558.564 0 1.098-.054 1.602-.162a9.646 9.646 0 001.512-.486l.9 2.466c-.528.276-1.188.516-1.98.72-.792.204-1.686.306-2.682.306-1.788 0-3.21-.498-4.266-1.494-1.044-.996-1.566-2.364-1.566-4.104v-18.828h-5.778v-2.628h9.234zm21.586 0v21.708c0 .912.282 1.56.846 1.944.564.372 1.29.558 2.178.558.564 0 1.098-.054 1.602-.162a9.646 9.646 0 001.512-.486l.9 2.466c-.528.276-1.188.516-1.98.72-.792.204-1.686.306-2.682.306-1.788 0-3.21-.498-4.266-1.494-1.044-.996-1.566-2.364-1.566-4.104v-18.828h-5.778v-2.628h9.234zm29.938 7.632l-6.624 19.08a15.491 15.491 0 01-1.764 3.636 8.587 8.587 0 01-2.79 2.664c-1.128.684-2.55 1.11-4.266 1.278l-.486-2.682c1.296-.204 2.322-.516 3.078-.936.768-.42 1.368-.966 1.8-1.638.444-.672.84-1.482 1.188-2.43h-1.17l-6.534-18.972h3.69l5.166 16.452 5.148-16.452h3.564zm15.664 6.372c0-2.424-.276-4.53-.828-6.318-.54-1.8-1.368-3.45-2.484-4.95-1.116-1.5-2.532-3.036-4.248-4.608l1.872-1.872c1.944 1.596 3.606 3.24 4.986 4.932a18.521 18.521 0 013.186 5.652c.744 2.064 1.116 4.452 1.116 7.164 0 2.712-.372 5.106-1.116 7.182a18.574 18.574 0 01-3.186 5.634c-1.38 1.692-3.042 3.336-4.986 4.932l-1.872-1.872c1.716-1.584 3.132-3.126 4.248-4.626a15.915 15.915 0 002.502-4.95c.54-1.788.81-3.888.81-6.3zm21.586 0c0-2.424-.276-4.53-.828-6.318-.54-1.8-1.368-3.45-2.484-4.95-1.116-1.5-2.532-3.036-4.248-4.608l1.872-1.872c1.944 1.596 3.606 3.24 4.986 4.932a18.521 18.521 0 013.186 5.652c.744 2.064 1.116 4.452 1.116 7.164 0 2.712-.372 5.106-1.116 7.182a18.574 18.574 0 01-3.186 5.634c-1.38 1.692-3.042 3.336-4.986 4.932l-1.872-1.872c1.716-1.584 3.132-3.126 4.248-4.626a15.915 15.915 0 002.502-4.95c.54-1.788.81-3.888.81-6.3zm-653.302 47c0 2.412.27 4.512.81 6.3a16.13 16.13 0 002.484 4.95c1.128 1.5 2.55 3.042 4.266 4.626l-1.872 1.872c-1.944-1.596-3.612-3.24-5.004-4.932a19.092 19.092 0 01-3.186-5.634c-.732-2.076-1.098-4.47-1.098-7.182 0-2.712.366-5.1 1.098-7.164a19.035 19.035 0 013.186-5.652c1.392-1.692 3.06-3.336 5.004-4.932l1.872 1.872c-1.716 1.572-3.132 3.108-4.248 4.608a16.175 16.175 0 00-2.502 4.95c-.54 1.788-.81 3.894-.81 6.318zm25.906 10.134c.924 0 1.782-.15 2.574-.45a10.4 10.4 0 002.25-1.206l1.656 2.25c-.84.696-1.848 1.26-3.024 1.692-1.164.42-2.334.63-3.51.63-1.908 0-3.54-.408-4.896-1.224-1.344-.816-2.37-1.962-3.078-3.438-.708-1.476-1.062-3.204-1.062-5.184 0-1.92.354-3.63 1.062-5.13.72-1.512 1.758-2.706 3.114-3.582 1.356-.876 2.994-1.314 4.914-1.314 2.472 0 4.62.744 6.444 2.232l-1.638 2.25c-1.596-1.104-3.192-1.656-4.788-1.656-1.584 0-2.88.588-3.888 1.764-1.008 1.176-1.512 2.988-1.512 5.436 0 2.46.504 4.23 1.512 5.31 1.02 1.08 2.31 1.62 3.87 1.62zm26.752-1.89c0 .756.12 1.308.36 1.656.24.336.618.588 1.134.756l-.81 2.376c-.864-.108-1.62-.366-2.268-.774-.636-.408-1.104-1.032-1.404-1.872a6.355 6.355 0 01-2.592 1.998c-1.044.444-2.178.666-3.402.666-1.908 0-3.414-.54-4.518-1.62-1.104-1.08-1.656-2.502-1.656-4.266 0-1.968.768-3.48 2.304-4.536 1.548-1.068 3.768-1.602 6.66-1.602h2.754v-1.44c0-1.308-.39-2.238-1.17-2.79-.768-.552-1.842-.828-3.222-.828-.636 0-1.386.078-2.25.234-.852.156-1.764.402-2.736.738l-.882-2.52a18.606 18.606 0 013.366-.954 17.336 17.336 0 013.024-.288c2.436 0 4.26.558 5.472 1.674 1.224 1.116 1.836 2.634 1.836 4.554v8.838zm-8.01 2.214c.876 0 1.722-.228 2.538-.684a5.63 5.63 0 002.034-1.908v-4.59h-2.52c-2.004 0-3.426.342-4.266 1.026-.84.672-1.26 1.596-1.26 2.772 0 2.256 1.158 3.384 3.474 3.384zm23.404-24.462v21.708c0 .912.282 1.56.846 1.944.564.372 1.29.558 2.178.558.564 0 1.098-.054 1.602-.162a9.646 9.646 0 001.512-.486l.9 2.466c-.528.276-1.188.516-1.98.72-.792.204-1.686.306-2.682.306-1.788 0-3.21-.498-4.266-1.494-1.044-.996-1.566-2.364-1.566-4.104v-18.828h-5.778v-2.628h9.234zm21.586 0v21.708c0 .912.282 1.56.846 1.944.564.372 1.29.558 2.178.558.564 0 1.098-.054 1.602-.162a9.646 9.646 0 001.512-.486l.9 2.466c-.528.276-1.188.516-1.98.72-.792.204-1.686.306-2.682.306-1.788 0-3.21-.498-4.266-1.494-1.044-.996-1.566-2.364-1.566-4.104v-18.828h-5.778v-2.628h9.234zm13.846 18.234v-2.916h14.616v2.916h-14.616zm28.894-19.674c.72 0 1.296.222 1.728.666.444.444.666.984.666 1.62 0 .66-.222 1.218-.666 1.674-.432.444-1.008.666-1.728.666-.708 0-1.284-.222-1.728-.666-.432-.456-.648-1.014-.648-1.674 0-.636.216-1.176.648-1.62.444-.444 1.02-.666 1.728-.666zm2.574 9.072v16.344h5.274V364h-14.508v-2.628h5.777v-13.716h-5.597v-2.628h9.054zM276.711 364v-18.972h2.97l.252 2.556a7.801 7.801 0 012.844-2.232c1.128-.516 2.25-.774 3.366-.774 1.824 0 3.168.498 4.032 1.494.864.984 1.296 2.358 1.296 4.122V364h-3.456v-11.682c0-1.2-.072-2.172-.216-2.916-.132-.744-.414-1.284-.846-1.62-.432-.348-1.086-.522-1.962-.522a4.54 4.54 0 00-2.808.954c-.84.636-1.512 1.32-2.016 2.052V364h-3.456zm36.994-.972c-.672.432-1.482.774-2.43 1.026a10.43 10.43 0 01-2.844.396c-2.112 0-3.732-.552-4.86-1.656-1.116-1.104-1.674-2.538-1.674-4.302V347.62h-4.302v-2.592h4.302v-4.284l3.456-.414v4.698h6.48l-.396 2.592h-6.084v10.836c0 1.044.264 1.83.792 2.358.54.528 1.434.792 2.682.792.696 0 1.338-.078 1.926-.234a7.83 7.83 0 001.656-.666l1.296 2.322zm8.968-7.344c.096 2.088.66 3.606 1.692 4.554 1.044.948 2.28 1.422 3.708 1.422.948 0 1.818-.144 2.61-.432.792-.288 1.596-.708 2.412-1.26l1.566 2.178c-.888.708-1.914 1.272-3.078 1.692a10.86 10.86 0 01-3.618.612c-1.896 0-3.51-.414-4.842-1.242-1.32-.84-2.328-2.004-3.024-3.492-.684-1.488-1.026-3.216-1.026-5.184 0-1.908.342-3.612 1.026-5.112.696-1.5 1.674-2.682 2.934-3.546 1.26-.864 2.76-1.296 4.5-1.296 2.448 0 4.374.84 5.778 2.52 1.416 1.668 2.124 3.954 2.124 6.858 0 .324-.006.636-.018.936-.012.3-.03.564-.054.792h-12.69zm4.896-8.406c-1.356 0-2.478.48-3.366 1.44-.888.96-1.398 2.442-1.53 4.446h9.432c-.036-1.92-.456-3.378-1.26-4.374-.792-1.008-1.884-1.512-3.276-1.512zM341.649 364v-2.556h2.88v-13.86h-2.88v-2.556h5.526l.63 4.446c.72-1.572 1.602-2.778 2.646-3.618 1.056-.852 2.424-1.278 4.104-1.278.552 0 1.038.042 1.458.126.432.084.87.192 1.314.324l-.54 6.66h-2.664v-3.96h-.018c-2.844 0-4.884 2.034-6.12 6.102v7.614h3.852V364h-10.188zm35.392-4.356c0 .756.12 1.308.36 1.656.24.336.618.588 1.134.756l-.81 2.376c-.864-.108-1.62-.366-2.268-.774-.636-.408-1.104-1.032-1.404-1.872a6.355 6.355 0 01-2.592 1.998c-1.044.444-2.178.666-3.402.666-1.908 0-3.414-.54-4.518-1.62-1.104-1.08-1.656-2.502-1.656-4.266 0-1.968.768-3.48 2.304-4.536 1.548-1.068 3.768-1.602 6.66-1.602h2.754v-1.44c0-1.308-.39-2.238-1.17-2.79-.768-.552-1.842-.828-3.222-.828-.636 0-1.386.078-2.25.234-.852.156-1.764.402-2.736.738l-.882-2.52a18.606 18.606 0 013.366-.954 17.336 17.336 0 013.024-.288c2.436 0 4.26.558 5.472 1.674 1.224 1.116 1.836 2.634 1.836 4.554v8.838zm-8.01 2.214c.876 0 1.722-.228 2.538-.684a5.63 5.63 0 002.034-1.908v-4.59h-2.52c-2.004 0-3.426.342-4.266 1.026-.84.672-1.26 1.596-1.26 2.772 0 2.256 1.158 3.384 3.474 3.384zm24.43-.324c.924 0 1.782-.15 2.574-.45a10.4 10.4 0 002.25-1.206l1.656 2.25c-.84.696-1.848 1.26-3.024 1.692-1.164.42-2.334.63-3.51.63-1.908 0-3.54-.408-4.896-1.224-1.344-.816-2.37-1.962-3.078-3.438-.708-1.476-1.062-3.204-1.062-5.184 0-1.92.354-3.63 1.062-5.13.72-1.512 1.758-2.706 3.114-3.582 1.356-.876 2.994-1.314 4.914-1.314 2.472 0 4.62.744 6.444 2.232l-1.638 2.25c-1.596-1.104-3.192-1.656-4.788-1.656-1.584 0-2.88.588-3.888 1.764-1.008 1.176-1.512 2.988-1.512 5.436 0 2.46.504 4.23 1.512 5.31 1.02 1.08 2.31 1.62 3.87 1.62zm28.174 1.494c-.672.432-1.482.774-2.43 1.026a10.43 10.43 0 01-2.844.396c-2.112 0-3.732-.552-4.86-1.656-1.116-1.104-1.674-2.538-1.674-4.302V347.62h-4.302v-2.592h4.302v-4.284l3.456-.414v4.698h6.48l-.396 2.592h-6.084v10.836c0 1.044.264 1.83.792 2.358.54.528 1.434.792 2.682.792.696 0 1.338-.078 1.926-.234a7.83 7.83 0 001.656-.666l1.296 2.322zm13.54-27.072c.72 0 1.296.222 1.728.666.444.444.666.984.666 1.62 0 .66-.222 1.218-.666 1.674-.432.444-1.008.666-1.728.666-.708 0-1.284-.222-1.728-.666-.432-.456-.648-1.014-.648-1.674 0-.636.216-1.176.648-1.62.444-.444 1.02-.666 1.728-.666zm2.574 9.072v16.344h5.274V364h-14.508v-2.628h5.778v-13.716h-5.598v-2.628h9.054zm27.814 0L458.759 364h-4.032l-6.768-18.972h3.672l5.202 15.966 5.184-15.966h3.546zm8.212 10.656c.096 2.088.66 3.606 1.692 4.554 1.044.948 2.28 1.422 3.708 1.422.948 0 1.818-.144 2.61-.432.792-.288 1.596-.708 2.412-1.26l1.566 2.178c-.888.708-1.914 1.272-3.078 1.692a10.86 10.86 0 01-3.618.612c-1.896 0-3.51-.414-4.842-1.242-1.32-.84-2.328-2.004-3.024-3.492-.684-1.488-1.026-3.216-1.026-5.184 0-1.908.342-3.612 1.026-5.112.696-1.5 1.674-2.682 2.934-3.546 1.26-.864 2.76-1.296 4.5-1.296 2.448 0 4.374.84 5.778 2.52 1.416 1.668 2.124 3.954 2.124 6.858 0 .324-.006.636-.018.936-.012.3-.03.564-.054.792h-12.69zm4.896-8.406c-1.356 0-2.478.48-3.366 1.44-.888.96-1.398 2.442-1.53 4.446h9.432c-.036-1.92-.456-3.378-1.26-4.374-.792-1.008-1.884-1.512-3.276-1.512zm21.694-9.882v21.708c0 .912.282 1.56.846 1.944.564.372 1.29.558 2.178.558.564 0 1.098-.054 1.602-.162a9.646 9.646 0 001.512-.486l.9 2.466c-.528.276-1.188.516-1.98.72-.792.204-1.686.306-2.682.306-1.788 0-3.21-.498-4.266-1.494-1.044-.996-1.566-2.364-1.566-4.104v-18.828h-5.778v-2.628h9.234zm29.938 7.632l-6.624 19.08a15.491 15.491 0 01-1.764 3.636 8.587 8.587 0 01-2.79 2.664c-1.128.684-2.55 1.11-4.266 1.278l-.486-2.682c1.296-.204 2.322-.516 3.078-.936.768-.42 1.368-.966 1.8-1.638.444-.672.84-1.482 1.188-2.43h-1.17l-6.534-18.972h3.69l5.166 16.452 5.148-16.452h3.564zm32.948 1.836l-.576-9.468h4.032l-.576 9.468h-2.88zm26.932-9.882l3.456.414V364h-3.042l-.288-2.43c-1.344 1.92-3.132 2.88-5.364 2.88-1.632 0-2.982-.414-4.05-1.242-1.056-.84-1.842-2.004-2.358-3.492s-.774-3.216-.774-5.184c0-1.92.294-3.624.882-5.112.6-1.5 1.452-2.682 2.556-3.546 1.116-.864 2.46-1.296 4.032-1.296 2.04 0 3.69.72 4.95 2.16v-9.756zm-4.05 10.314c-1.488 0-2.64.594-3.456 1.782-.804 1.188-1.206 3.006-1.206 5.454 0 2.436.366 4.242 1.098 5.418.744 1.176 1.812 1.764 3.204 1.764.996 0 1.854-.282 2.574-.846a8.138 8.138 0 001.836-2.016v-9.27c-.492-.72-1.086-1.278-1.782-1.674a4.344 4.344 0 00-2.268-.612zm21.766-2.718c2.712 0 4.77.9 6.174 2.7 1.416 1.8 2.124 4.206 2.124 7.218 0 1.956-.324 3.684-.972 5.184-.636 1.5-1.572 2.67-2.808 3.51-1.236.84-2.754 1.26-4.554 1.26-2.712 0-4.782-.9-6.21-2.7-1.416-1.8-2.124-4.206-2.124-7.218 0-1.968.318-3.696.954-5.184.648-1.5 1.59-2.67 2.826-3.51 1.248-.84 2.778-1.26 4.59-1.26zm0 2.754c-1.56 0-2.736.588-3.528 1.764-.792 1.164-1.188 2.976-1.188 5.436 0 2.436.39 4.242 1.17 5.418.78 1.164 1.95 1.746 3.51 1.746 1.56 0 2.73-.582 3.51-1.746.78-1.176 1.17-2.994 1.17-5.454 0-2.448-.39-4.254-1.17-5.418-.78-1.164-1.938-1.746-3.474-1.746zm14.241 8.298v-2.916h14.616v2.916H622.14zm28.174 6.066c1.38 0 2.466-.252 3.258-.756.804-.504 1.206-1.188 1.206-2.052 0-.552-.108-1.02-.324-1.404-.204-.396-.636-.756-1.296-1.08-.648-.336-1.632-.672-2.952-1.008-1.296-.324-2.424-.702-3.384-1.134-.948-.432-1.686-.996-2.214-1.692-.516-.696-.774-1.596-.774-2.7 0-1.608.672-2.892 2.016-3.852 1.344-.96 3.126-1.44 5.346-1.44 1.56 0 2.916.21 4.068.63 1.152.408 2.136.912 2.952 1.512l-1.476 2.25a11.28 11.28 0 00-2.412-1.188c-.864-.324-1.884-.486-3.06-.486-1.404 0-2.406.216-3.006.648-.588.42-.882.978-.882 1.674 0 .528.144.966.432 1.314.3.336.81.648 1.53.936.72.276 1.716.588 2.988.936 1.236.336 2.316.732 3.24 1.188.924.456 1.638 1.056 2.142 1.8.516.732.774 1.698.774 2.898 0 1.356-.39 2.46-1.17 3.312-.78.84-1.794 1.458-3.042 1.854-1.236.396-2.556.594-3.96.594-1.728 0-3.216-.252-4.464-.756-1.236-.504-2.274-1.122-3.114-1.854l1.908-2.196a9.317 9.317 0 002.538 1.494 8.688 8.688 0 003.132.558zm22.342-17.118c2.712 0 4.77.9 6.174 2.7 1.416 1.8 2.124 4.206 2.124 7.218 0 1.956-.324 3.684-.972 5.184-.636 1.5-1.572 2.67-2.808 3.51-1.236.84-2.754 1.26-4.554 1.26-2.712 0-4.782-.9-6.21-2.7-1.416-1.8-2.124-4.206-2.124-7.218 0-1.968.318-3.696.954-5.184.648-1.5 1.59-2.67 2.826-3.51 1.248-.84 2.778-1.26 4.59-1.26zm0 2.754c-1.56 0-2.736.588-3.528 1.764-.792 1.164-1.188 2.976-1.188 5.436 0 2.436.39 4.242 1.17 5.418.78 1.164 1.95 1.746 3.51 1.746 1.56 0 2.73-.582 3.51-1.746.78-1.176 1.17-2.994 1.17-5.454 0-2.448-.39-4.254-1.17-5.418-.78-1.164-1.938-1.746-3.474-1.746zm26.95-2.754a3.94 3.94 0 011.818.432c.576.288 1.038.816 1.386 1.584.348.756.522 1.854.522 3.294V364h-3.15v-13.608c0-1.104-.072-1.896-.216-2.376-.132-.492-.516-.738-1.152-.738-.528 0-1.056.162-1.584.486-.516.324-1.02.864-1.512 1.62V364h-3.024v-13.608c0-1.104-.072-1.896-.216-2.376-.132-.492-.516-.738-1.152-.738-.54 0-1.068.162-1.584.486-.516.324-1.02.864-1.512 1.62V364h-3.15v-18.972h2.664l.216 2.124a8.82 8.82 0 011.746-1.836c.648-.492 1.434-.738 2.358-.738.72 0 1.386.174 1.998.522.624.348 1.08.996 1.368 1.944.516-.732 1.104-1.326 1.764-1.782.66-.456 1.464-.684 2.412-.684zm11.614 11.106c.096 2.088.66 3.606 1.692 4.554 1.044.948 2.28 1.422 3.708 1.422.948 0 1.818-.144 2.61-.432.792-.288 1.596-.708 2.412-1.26l1.566 2.178c-.888.708-1.914 1.272-3.078 1.692a10.86 10.86 0 01-3.618.612c-1.896 0-3.51-.414-4.842-1.242-1.32-.84-2.328-2.004-3.024-3.492-.684-1.488-1.026-3.216-1.026-5.184 0-1.908.342-3.612 1.026-5.112.696-1.5 1.674-2.682 2.934-3.546 1.26-.864 2.76-1.296 4.5-1.296 2.448 0 4.374.84 5.778 2.52 1.416 1.668 2.124 3.954 2.124 6.858 0 .324-.006.636-.018.936-.012.3-.03.564-.054.792h-12.69zm4.896-8.406c-1.356 0-2.478.48-3.366 1.44-.888.96-1.398 2.442-1.53 4.446h9.432c-.036-1.92-.456-3.378-1.26-4.374-.792-1.008-1.884-1.512-3.276-1.512zm29.308 15.75c-.672.432-1.482.774-2.43 1.026a10.43 10.43 0 01-2.844.396c-2.112 0-3.732-.552-4.86-1.656-1.116-1.104-1.674-2.538-1.674-4.302V347.62h-4.302v-2.592h4.302v-4.284l3.456-.414v4.698h6.48l-.396 2.592h-6.084v10.836c0 1.044.264 1.83.792 2.358.54.528 1.434.792 2.682.792.696 0 1.338-.078 1.926-.234a7.83 7.83 0 001.656-.666l1.296 2.322zm9.634-25.974v10.44a7.417 7.417 0 012.718-2.178c1.068-.492 2.154-.738 3.258-.738 1.824 0 3.168.498 4.032 1.494.864.984 1.296 2.358 1.296 4.122V364h-3.456v-13.5c0-1.14-.246-1.962-.738-2.466-.48-.516-1.248-.774-2.304-.774-1.008 0-1.938.318-2.79.954-.84.636-1.512 1.326-2.016 2.07V364h-3.456v-26.568l3.456-.378zm25.492-1.098c.72 0 1.296.222 1.728.666.444.444.666.984.666 1.62 0 .66-.222 1.218-.666 1.674-.432.444-1.008.666-1.728.666-.708 0-1.284-.222-1.728-.666-.432-.456-.648-1.014-.648-1.674 0-.636.216-1.176.648-1.62.444-.444 1.02-.666 1.728-.666zm2.574 9.072v16.344h5.274V364H773.89v-2.628h5.778v-13.716h-5.598v-2.628h9.054zM794.774 364v-18.972h2.97l.252 2.556a7.801 7.801 0 012.844-2.232c1.128-.516 2.25-.774 3.366-.774 1.824 0 3.168.498 4.032 1.494.864.984 1.296 2.358 1.296 4.122V364h-3.456v-11.682c0-1.2-.072-2.172-.216-2.916-.132-.744-.414-1.284-.846-1.62-.432-.348-1.086-.522-1.962-.522a4.54 4.54 0 00-2.808.954c-.84.636-1.512 1.32-2.016 2.052V364h-3.456zm37.246-21.168l1.008 3.06c-.792.252-1.644.414-2.556.486-.9.072-1.896.108-2.988.108 2.244 1.008 3.366 2.604 3.366 4.788 0 1.872-.648 3.414-1.944 4.626-1.284 1.212-3.066 1.818-5.346 1.818-.6 0-1.11-.024-1.53-.072-.42-.06-.822-.15-1.206-.27-.612.432-.918 1.008-.918 1.728 0 .42.168.78.504 1.08.336.288.99.432 1.962.432h3.366c1.308 0 2.472.228 3.492.684 1.032.456 1.842 1.08 2.43 1.872.588.78.882 1.662.882 2.646 0 1.884-.804 3.33-2.412 4.338-1.596 1.02-3.876 1.53-6.84 1.53-2.088 0-3.732-.216-4.932-.648-1.188-.432-2.034-1.074-2.538-1.926-.492-.852-.738-1.92-.738-3.204h3.114c0 .708.138 1.29.414 1.746.276.468.78.81 1.512 1.026.732.228 1.788.342 3.168.342 2.04 0 3.51-.252 4.41-.756.9-.504 1.35-1.242 1.35-2.214 0-.852-.378-1.5-1.134-1.944-.756-.432-1.722-.648-2.898-.648h-3.33c-1.704 0-2.958-.36-3.762-1.08-.792-.72-1.188-1.56-1.188-2.52 0-1.332.696-2.454 2.088-3.366-2.148-1.128-3.222-2.886-3.222-5.274 0-1.296.324-2.442.972-3.438.66-1.008 1.572-1.794 2.736-2.358 1.164-.564 2.502-.846 4.014-.846 1.572 0 2.862-.072 3.87-.216 1.008-.144 1.878-.348 2.61-.612a26.24 26.24 0 002.214-.918zm-8.676 4.194c-1.428 0-2.49.396-3.186 1.188-.684.78-1.026 1.782-1.026 3.006 0 1.248.354 2.262 1.062 3.042.708.78 1.782 1.17 3.222 1.17 1.272 0 2.244-.372 2.916-1.116.672-.744 1.008-1.788 1.008-3.132 0-2.772-1.332-4.158-3.996-4.158zm24.826 4.374c0-2.424-.276-4.53-.828-6.318-.54-1.8-1.368-3.45-2.484-4.95-1.116-1.5-2.532-3.036-4.248-4.608l1.872-1.872c1.944 1.596 3.606 3.24 4.986 4.932a18.521 18.521 0 013.186 5.652c.744 2.064 1.116 4.452 1.116 7.164 0 2.712-.372 5.106-1.116 7.182a18.574 18.574 0 01-3.186 5.634c-1.38 1.692-3.042 3.336-4.986 4.932l-1.872-1.872c1.716-1.584 3.132-3.126 4.248-4.626a15.915 15.915 0 002.502-4.95c.54-1.788.81-3.888.81-6.3z"/><path fill="#C440E5" d="M115.292 54.982l3.456.414V82h-3.042l-.288-2.43c-1.344 1.92-3.132 2.88-5.364 2.88-1.632 0-2.982-.414-4.05-1.242-1.056-.84-1.842-2.004-2.358-3.492s-.774-3.216-.774-5.184c0-1.92.294-3.624.882-5.112.6-1.5 1.452-2.682 2.556-3.546 1.116-.864 2.46-1.296 4.032-1.296 2.04 0 3.69.72 4.95 2.16v-9.756zm-4.05 10.314c-1.488 0-2.64.594-3.456 1.782-.804 1.188-1.206 3.006-1.206 5.454 0 2.436.366 4.242 1.098 5.418.744 1.176 1.812 1.764 3.204 1.764.996 0 1.854-.282 2.574-.846a8.138 8.138 0 001.836-2.016v-9.27c-.492-.72-1.086-1.278-1.782-1.674a4.344 4.344 0 00-2.268-.612zm17.158 8.388c.096 2.088.66 3.606 1.692 4.554 1.044.948 2.28 1.422 3.708 1.422.948 0 1.818-.144 2.61-.432.792-.288 1.596-.708 2.412-1.26l1.566 2.178c-.888.708-1.914 1.272-3.078 1.692a10.86 10.86 0 01-3.618.612c-1.896 0-3.51-.414-4.842-1.242-1.32-.84-2.328-2.004-3.024-3.492-.684-1.488-1.026-3.216-1.026-5.184 0-1.908.342-3.612 1.026-5.112.696-1.5 1.674-2.682 2.934-3.546 1.26-.864 2.76-1.296 4.5-1.296 2.448 0 4.374.84 5.778 2.52 1.416 1.668 2.124 3.954 2.124 6.858 0 .324-.006.636-.018.936-.012.3-.03.564-.054.792H128.4zm4.896-8.406c-1.356 0-2.478.48-3.366 1.44-.888.96-1.398 2.442-1.53 4.446h9.432c-.036-1.92-.456-3.378-1.26-4.374-.792-1.008-1.884-1.512-3.276-1.512zm25.258-10.296c1.08 0 2.052.096 2.916.288.864.18 1.68.438 2.448.774l-1.08 2.484a8.098 8.098 0 00-1.962-.594 11.09 11.09 0 00-2.106-.198c-2.568 0-3.852 1.026-3.852 3.078v3.636h6.408l-.378 2.628h-6.03V82h-3.438V67.078h-4.446V64.45h4.446v-3.618c0-1.176.3-2.202.9-3.078.612-.876 1.446-1.554 2.502-2.034 1.068-.492 2.292-.738 3.672-.738zm13.684 8.046v13.356c0 1.2.24 2.064.72 2.592.492.516 1.248.774 2.268.774.96 0 1.878-.282 2.754-.846.888-.564 1.578-1.236 2.07-2.016v-13.86h3.456V82h-2.97l-.252-2.502a7.17 7.17 0 01-2.736 2.196c-1.08.504-2.178.756-3.294.756-1.836 0-3.21-.498-4.122-1.494-.9-.996-1.35-2.376-1.35-4.14V63.028h3.456zM190.368 82V63.028h2.97l.252 2.556a7.801 7.801 0 012.844-2.232c1.128-.516 2.25-.774 3.366-.774 1.824 0 3.168.498 4.032 1.494.864.984 1.296 2.358 1.296 4.122V82h-3.456V70.318c0-1.2-.072-2.172-.216-2.916-.132-.744-.414-1.284-.846-1.62-.432-.348-1.086-.522-1.962-.522a4.54 4.54 0 00-2.808.954c-.84.636-1.512 1.32-2.016 2.052V82h-3.456zm-35.81 112.956c.72 0 1.296.222 1.728.666.444.444.666.984.666 1.62 0 .66-.222 1.218-.666 1.674-.432.444-1.008.666-1.728.666-.708 0-1.284-.222-1.728-.666-.432-.456-.648-1.014-.648-1.674 0-.636.216-1.176.648-1.62.444-.444 1.02-.666 1.728-.666zm2.574 9.072v16.344h5.274V223h-14.508v-2.628h5.778v-13.716h-5.598v-2.628h9.054zM168.782 223v-18.972h2.97l.252 2.556a7.801 7.801 0 012.844-2.232c1.128-.516 2.25-.774 3.366-.774 1.824 0 3.168.498 4.032 1.494.864.984 1.296 2.358 1.296 4.122V223h-3.456v-11.682c0-1.2-.072-2.172-.216-2.916-.132-.744-.414-1.284-.846-1.62-.432-.348-1.086-.522-1.962-.522a4.54 4.54 0 00-2.808.954c-.84.636-1.512 1.32-2.016 2.052V223h-3.456zm36.994-.972c-.672.432-1.482.774-2.43 1.026a10.43 10.43 0 01-2.844.396c-2.112 0-3.732-.552-4.86-1.656-1.116-1.104-1.674-2.538-1.674-4.302V206.62h-4.302v-2.592h4.302v-4.284l3.456-.414v4.698h6.48l-.396 2.592h-6.084v10.836c0 1.044.264 1.83.792 2.358.54.528 1.434.792 2.682.792.696 0 1.338-.078 1.926-.234a7.83 7.83 0 001.656-.666l1.296 2.322zm8.968-7.344c.096 2.088.66 3.606 1.692 4.554 1.044.948 2.28 1.422 3.708 1.422.948 0 1.818-.144 2.61-.432.792-.288 1.596-.708 2.412-1.26l1.566 2.178c-.888.708-1.914 1.272-3.078 1.692a10.86 10.86 0 01-3.618.612c-1.896 0-3.51-.414-4.842-1.242-1.32-.84-2.328-2.004-3.024-3.492-.684-1.488-1.026-3.216-1.026-5.184 0-1.908.342-3.612 1.026-5.112.696-1.5 1.674-2.682 2.934-3.546 1.26-.864 2.76-1.296 4.5-1.296 2.448 0 4.374.84 5.778 2.52 1.416 1.668 2.124 3.954 2.124 6.858 0 .324-.006.636-.018.936-.012.3-.03.564-.054.792h-12.69zm4.896-8.406c-1.356 0-2.478.48-3.366 1.44-.888.96-1.398 2.442-1.53 4.446h9.432c-.036-1.92-.456-3.378-1.26-4.374-.792-1.008-1.884-1.512-3.276-1.512zM233.72 223v-2.556h2.88v-13.86h-2.88v-2.556h5.526l.63 4.446c.72-1.572 1.602-2.778 2.646-3.618 1.056-.852 2.424-1.278 4.104-1.278.552 0 1.038.042 1.458.126.432.084.87.192 1.314.324l-.54 6.66h-2.664v-3.96h-.018c-2.844 0-4.884 2.034-6.12 6.102v7.614h3.852V223H233.72zm35.392-4.356c0 .756.12 1.308.36 1.656.24.336.618.588 1.133.756l-.809 2.376c-.864-.108-1.62-.366-2.268-.774-.636-.408-1.104-1.032-1.404-1.872a6.355 6.355 0 01-2.592 1.998c-1.044.444-2.178.666-3.402.666-1.908 0-3.414-.54-4.518-1.62-1.104-1.08-1.656-2.502-1.656-4.266 0-1.968.768-3.48 2.304-4.536 1.548-1.068 3.768-1.602 6.66-1.602h2.754v-1.44c0-1.308-.39-2.238-1.17-2.79-.768-.552-1.842-.828-3.222-.828-.636 0-1.386.078-2.25.234-.852.156-1.764.402-2.736.738l-.882-2.52a18.606 18.606 0 013.366-.954 17.336 17.336 0 013.024-.288c2.436 0 4.26.558 5.472 1.674 1.224 1.116 1.836 2.634 1.836 4.554v8.838zm-8.01 2.214c.876 0 1.722-.228 2.538-.684a5.63 5.63 0 002.034-1.908v-4.59h-2.52c-2.004 0-3.426.342-4.266 1.026-.84.672-1.26 1.596-1.26 2.772 0 2.256 1.158 3.384 3.474 3.384zm24.429-.324c.924 0 1.782-.15 2.574-.45a10.4 10.4 0 002.25-1.206l1.656 2.25c-.84.696-1.848 1.26-3.024 1.692-1.164.42-2.334.63-3.51.63-1.908 0-3.54-.408-4.896-1.224-1.344-.816-2.37-1.962-3.078-3.438-.708-1.476-1.062-3.204-1.062-5.184 0-1.92.354-3.63 1.062-5.13.72-1.512 1.758-2.706 3.114-3.582 1.356-.876 2.994-1.314 4.914-1.314 2.472 0 4.62.744 6.444 2.232l-1.638 2.25c-1.596-1.104-3.192-1.656-4.788-1.656-1.584 0-2.88.588-3.888 1.764-1.008 1.176-1.512 2.988-1.512 5.436 0 2.46.504 4.23 1.512 5.31 1.02 1.08 2.31 1.62 3.87 1.62zm28.174 1.494c-.672.432-1.482.774-2.43 1.026a10.43 10.43 0 01-2.844.396c-2.112 0-3.732-.552-4.86-1.656-1.116-1.104-1.674-2.538-1.674-4.302V206.62h-4.302v-2.592h4.302v-4.284l3.456-.414v4.698h6.48l-.396 2.592h-6.084v10.836c0 1.044.264 1.83.792 2.358.54.528 1.434.792 2.682.792.696 0 1.338-.078 1.926-.234a7.83 7.83 0 001.656-.666l1.296 2.322zm13.54-27.072c.72 0 1.296.222 1.728.666.444.444.666.984.666 1.62 0 .66-.222 1.218-.666 1.674-.432.444-1.008.666-1.728.666-.708 0-1.284-.222-1.728-.666-.432-.456-.648-1.014-.648-1.674 0-.636.216-1.176.648-1.62.444-.444 1.02-.666 1.728-.666zm2.574 9.072v16.344h5.274V223h-14.508v-2.628h5.778v-13.716h-5.598v-2.628h9.054zm27.814 0L350.829 223h-4.032l-6.768-18.972h3.672l5.202 15.966 5.184-15.966h3.546zm8.212 10.656c.096 2.088.66 3.606 1.692 4.554 1.044.948 2.28 1.422 3.708 1.422.948 0 1.818-.144 2.61-.432.792-.288 1.596-.708 2.412-1.26l1.566 2.178c-.888.708-1.914 1.272-3.078 1.692a10.86 10.86 0 01-3.618.612c-1.896 0-3.51-.414-4.842-1.242-1.32-.84-2.328-2.004-3.024-3.492-.684-1.488-1.026-3.216-1.026-5.184 0-1.908.342-3.612 1.026-5.112.696-1.5 1.674-2.682 2.934-3.546 1.26-.864 2.76-1.296 4.5-1.296 2.448 0 4.374.84 5.778 2.52 1.416 1.668 2.124 3.954 2.124 6.858 0 .324-.006.636-.018.936-.012.3-.03.564-.054.792h-12.69zm4.896-8.406c-1.356 0-2.478.48-3.366 1.44-.888.96-1.398 2.442-1.53 4.446h9.432c-.036-1.92-.456-3.378-1.26-4.374-.792-1.008-1.884-1.512-3.276-1.512zM161.596 270h-4.608l-2.322-13.734L152.164 270h-4.5l-3.366-18.972h3.438l2.232 16.83 2.862-14.418h3.78l2.682 14.418 2.232-16.83h3.294L161.596 270zm10.642-26.946v10.44a7.417 7.417 0 012.718-2.178c1.068-.492 2.154-.738 3.258-.738 1.824 0 3.168.498 4.032 1.494.864.984 1.296 2.358 1.296 4.122V270h-3.456v-13.5c0-1.14-.246-1.962-.738-2.466-.48-.516-1.248-.774-2.304-.774-1.008 0-1.938.318-2.79.954-.84.636-1.512 1.326-2.016 2.07V270h-3.456v-26.568l3.456-.378zm20.92 18.63c.096 2.088.66 3.606 1.692 4.554 1.044.948 2.28 1.422 3.708 1.422.948 0 1.818-.144 2.61-.432.792-.288 1.596-.708 2.412-1.26l1.566 2.178c-.888.708-1.914 1.272-3.078 1.692a10.86 10.86 0 01-3.618.612c-1.896 0-3.51-.414-4.842-1.242-1.32-.84-2.328-2.004-3.024-3.492-.684-1.488-1.026-3.216-1.026-5.184 0-1.908.342-3.612 1.026-5.112.696-1.5 1.674-2.682 2.934-3.546 1.26-.864 2.76-1.296 4.5-1.296 2.448 0 4.374.84 5.778 2.52 1.416 1.668 2.124 3.954 2.124 6.858 0 .324-.006.636-.018.936-.012.3-.03.564-.054.792h-12.69zm4.896-8.406c-1.356 0-2.478.48-3.366 1.44-.888.96-1.398 2.442-1.53 4.446h9.432c-.036-1.92-.456-3.378-1.26-4.374-.792-1.008-1.884-1.512-3.276-1.512zm13.9 16.722v-18.972h2.97l.252 2.556a7.801 7.801 0 012.844-2.232c1.128-.516 2.25-.774 3.366-.774 1.824 0 3.168.498 4.032 1.494.864.984 1.296 2.358 1.296 4.122V270h-3.456v-11.682c0-1.2-.072-2.172-.216-2.916-.132-.744-.414-1.284-.846-1.62-.432-.348-1.086-.522-1.962-.522a4.54 4.54 0 00-2.808.954c-.84.636-1.512 1.32-2.016 2.052V270h-3.456z"/><path fill="#2293FB" d="M241.334 55.396v21.708c0 .912.282 1.56.846 1.944.564.372 1.29.558 2.178.558.564 0 1.098-.054 1.602-.162a9.646 9.646 0 001.512-.486l.9 2.466c-.528.276-1.188.516-1.98.72-.792.204-1.686.306-2.682.306-1.788 0-3.21-.498-4.266-1.494-1.044-.996-1.566-2.364-1.566-4.104V58.024H232.1v-2.628h9.234zm16.582 18.288c.096 2.088.66 3.606 1.692 4.554 1.044.948 2.28 1.422 3.708 1.422.948 0 1.818-.144 2.61-.432.792-.288 1.596-.708 2.412-1.26l1.566 2.178c-.888.708-1.914 1.272-3.078 1.692a10.86 10.86 0 01-3.618.612c-1.896 0-3.51-.414-4.842-1.242-1.32-.84-2.328-2.004-3.024-3.492-.684-1.488-1.026-3.216-1.026-5.184 0-1.908.342-3.612 1.026-5.112.696-1.5 1.674-2.682 2.934-3.546 1.26-.864 2.76-1.296 4.5-1.296 2.448 0 4.374.84 5.778 2.52 1.416 1.668 2.124 3.954 2.124 6.858 0 .324-.006.636-.018.936-.012.3-.03.564-.055.792h-12.689zm4.896-8.406c-1.356 0-2.478.48-3.366 1.44-.888.96-1.398 2.442-1.53 4.446h9.432c-.036-1.92-.456-3.378-1.26-4.374-.792-1.008-1.884-1.512-3.276-1.512zm27.885 12.366c0 .756.12 1.308.36 1.656.24.336.618.588 1.134.756l-.81 2.376c-.864-.108-1.62-.366-2.268-.774-.636-.408-1.104-1.032-1.404-1.872a6.355 6.355 0 01-2.592 1.998c-1.044.444-2.178.666-3.402.666-1.908 0-3.414-.54-4.518-1.62-1.104-1.08-1.656-2.502-1.656-4.266 0-1.968.768-3.48 2.304-4.536 1.548-1.068 3.768-1.602 6.66-1.602h2.754v-1.44c0-1.308-.39-2.238-1.17-2.79-.768-.552-1.842-.828-3.222-.828-.636 0-1.386.078-2.25.234-.852.156-1.764.402-2.736.738l-.882-2.52a18.606 18.606 0 013.366-.954 17.336 17.336 0 013.024-.288c2.436 0 4.26.558 5.472 1.674 1.224 1.116 1.836 2.634 1.836 4.554v8.838zm-8.01 2.214c.876 0 1.722-.228 2.538-.684a5.63 5.63 0 002.034-1.908v-4.59h-2.52c-2.004 0-3.426.342-4.266 1.026-.84.672-1.26 1.596-1.26 2.772 0 2.256 1.158 3.384 3.474 3.384zM298.477 82v-2.556h2.88v-13.86h-2.88v-2.556h5.526l.63 4.446c.72-1.572 1.602-2.778 2.646-3.618 1.056-.852 2.424-1.278 4.104-1.278.552 0 1.038.042 1.458.126.432.084.87.192 1.314.324l-.54 6.66h-2.664v-3.96h-.018c-2.844 0-4.884 2.034-6.12 6.102v7.614h3.852V82h-10.188zm21.406 0V63.028h2.97l.252 2.556a7.801 7.801 0 012.844-2.232c1.128-.516 2.25-.774 3.366-.774 1.824 0 3.168.498 4.032 1.494.864.984 1.296 2.358 1.296 4.122V82h-3.456V70.318c0-1.2-.072-2.172-.216-2.916-.132-.744-.414-1.284-.846-1.62-.432-.348-1.086-.522-1.962-.522a4.54 4.54 0 00-2.808.954c-.84.636-1.512 1.32-2.016 2.052V82h-3.456zm21.64-8.37v-2.916h14.616v2.916h-14.616zm28.174 6.066c1.38 0 2.466-.252 3.258-.756.804-.504 1.206-1.188 1.206-2.052 0-.552-.108-1.02-.324-1.404-.204-.396-.636-.756-1.296-1.08-.648-.336-1.632-.672-2.952-1.008-1.296-.324-2.424-.702-3.384-1.134-.948-.432-1.686-.996-2.214-1.692-.516-.696-.774-1.596-.774-2.7 0-1.608.672-2.892 2.016-3.852 1.344-.96 3.126-1.44 5.346-1.44 1.56 0 2.916.21 4.068.63 1.152.408 2.136.912 2.952 1.512l-1.476 2.25a11.28 11.28 0 00-2.412-1.188c-.864-.324-1.884-.486-3.06-.486-1.404 0-2.406.216-3.006.648-.588.42-.882.978-.882 1.674 0 .528.144.966.432 1.314.3.336.81.648 1.53.936.72.276 1.716.588 2.988.936 1.236.336 2.316.732 3.24 1.188.924.456 1.638 1.056 2.142 1.8.516.732.774 1.698.774 2.898 0 1.356-.39 2.46-1.17 3.312-.78.84-1.794 1.458-3.042 1.854-1.236.396-2.556.594-3.96.594-1.728 0-3.216-.252-4.464-.756-1.236-.504-2.274-1.122-3.114-1.854l1.908-2.196a9.317 9.317 0 002.538 1.494 8.688 8.688 0 003.132.558zm22.342-17.118c2.712 0 4.77.9 6.174 2.7 1.416 1.8 2.124 4.206 2.124 7.218 0 1.956-.324 3.684-.972 5.184-.636 1.5-1.572 2.67-2.808 3.51-1.236.84-2.754 1.26-4.554 1.26-2.712 0-4.782-.9-6.21-2.7-1.416-1.8-2.124-4.206-2.124-7.218 0-1.968.318-3.696.954-5.184.648-1.5 1.59-2.67 2.826-3.51 1.248-.84 2.778-1.26 4.59-1.26zm0 2.754c-1.56 0-2.736.588-3.528 1.764-.792 1.164-1.188 2.976-1.188 5.436 0 2.436.39 4.242 1.17 5.418.78 1.164 1.95 1.746 3.51 1.746 1.56 0 2.73-.582 3.51-1.746.78-1.176 1.17-2.994 1.17-5.454 0-2.448-.39-4.254-1.17-5.418-.78-1.164-1.938-1.746-3.474-1.746zm26.95-2.754a3.94 3.94 0 011.818.432c.576.288 1.038.816 1.386 1.584.348.756.522 1.854.522 3.294V82h-3.15V68.392c0-1.104-.072-1.896-.216-2.376-.132-.492-.516-.738-1.152-.738-.528 0-1.056.162-1.584.486-.516.324-1.02.864-1.512 1.62V82h-3.024V68.392c0-1.104-.072-1.896-.216-2.376-.132-.492-.516-.738-1.152-.738-.54 0-1.068.162-1.584.486-.516.324-1.02.864-1.512 1.62V82h-3.15V63.028h2.664l.216 2.124a8.82 8.82 0 011.746-1.836c.648-.492 1.434-.738 2.358-.738.72 0 1.386.174 1.998.522.624.348 1.08.996 1.368 1.944.516-.732 1.104-1.326 1.764-1.782.66-.456 1.464-.684 2.412-.684zm11.614 11.106c.096 2.088.66 3.606 1.692 4.554 1.044.948 2.28 1.422 3.708 1.422.948 0 1.818-.144 2.61-.432.792-.288 1.596-.708 2.412-1.26l1.566 2.178c-.888.708-1.914 1.272-3.078 1.692a10.86 10.86 0 01-3.618.612c-1.896 0-3.51-.414-4.842-1.242-1.32-.84-2.328-2.004-3.024-3.492-.684-1.488-1.026-3.216-1.026-5.184 0-1.908.342-3.612 1.026-5.112.696-1.5 1.674-2.682 2.934-3.546 1.26-.864 2.76-1.296 4.5-1.296 2.448 0 4.374.84 5.778 2.52 1.416 1.668 2.124 3.954 2.124 6.858 0 .324-.006.636-.018.936-.012.3-.03.564-.054.792h-12.69zm4.896-8.406c-1.356 0-2.478.48-3.366 1.44-.888.96-1.398 2.442-1.53 4.446h9.432c-.036-1.92-.456-3.378-1.26-4.374-.792-1.008-1.884-1.512-3.276-1.512zm13.954 8.352v-2.916h14.616v2.916h-14.616zm24.322.054c.096 2.088.66 3.606 1.692 4.554 1.044.948 2.28 1.422 3.708 1.422.948 0 1.818-.144 2.61-.432.792-.288 1.596-.708 2.412-1.26l1.566 2.178c-.888.708-1.914 1.272-3.078 1.692a10.86 10.86 0 01-3.618.612c-1.896 0-3.51-.414-4.842-1.242-1.32-.84-2.328-2.004-3.024-3.492-.684-1.488-1.026-3.216-1.026-5.184 0-1.908.342-3.612 1.026-5.112.696-1.5 1.674-2.682 2.934-3.546 1.26-.864 2.76-1.296 4.5-1.296 2.448 0 4.374.84 5.778 2.52 1.416 1.668 2.124 3.954 2.124 6.858 0 .324-.006.636-.018.936-.012.3-.03.564-.054.792h-12.69zm4.896-8.406c-1.356 0-2.478.48-3.366 1.44-.888.96-1.398 2.442-1.53 4.446h9.432c-.036-1.92-.456-3.378-1.26-4.374-.792-1.008-1.884-1.512-3.276-1.512zm21.694-9.882v21.708c0 .912.282 1.56.846 1.944.564.372 1.29.558 2.178.558.564 0 1.098-.054 1.602-.162a9.646 9.646 0 001.512-.486l.9 2.466c-.528.276-1.188.516-1.98.72-.792.204-1.686.306-2.682.306-1.788 0-3.21-.498-4.266-1.494-1.044-.996-1.566-2.364-1.566-4.104V58.024h-5.778v-2.628h9.234zm21.154-1.44c.72 0 1.296.222 1.728.666.444.444.666.984.666 1.62 0 .66-.222 1.218-.666 1.674-.432.444-1.008.666-1.728.666-.708 0-1.284-.222-1.728-.666-.432-.456-.648-1.014-.648-1.674 0-.636.216-1.176.648-1.62.444-.444 1.02-.666 1.728-.666zm2.574 9.072v16.344h5.274V82h-14.508v-2.628h5.778V65.656h-5.598v-2.628h9.054zm18.292 16.668c1.38 0 2.466-.252 3.258-.756.804-.504 1.206-1.188 1.206-2.052 0-.552-.108-1.02-.324-1.404-.204-.396-.636-.756-1.296-1.08-.648-.336-1.632-.672-2.952-1.008-1.296-.324-2.424-.702-3.384-1.134-.948-.432-1.686-.996-2.214-1.692-.516-.696-.774-1.596-.774-2.7 0-1.608.672-2.892 2.016-3.852 1.344-.96 3.126-1.44 5.346-1.44 1.56 0 2.916.21 4.068.63 1.152.408 2.136.912 2.952 1.512l-1.476 2.25a11.28 11.28 0 00-2.412-1.188c-.864-.324-1.884-.486-3.06-.486-1.404 0-2.406.216-3.006.648-.588.42-.882.978-.882 1.674 0 .528.144.966.432 1.314.3.336.81.648 1.53.936.72.276 1.716.588 2.988.936 1.236.336 2.316.732 3.24 1.188.924.456 1.638 1.056 2.142 1.8.516.732.774 1.698.774 2.898 0 1.356-.39 2.46-1.17 3.312-.78.84-1.794 1.458-3.042 1.854-1.236.396-2.556.594-3.96.594-1.728 0-3.216-.252-4.464-.756-1.236-.504-2.274-1.122-3.114-1.854l1.908-2.196a9.317 9.317 0 002.538 1.494 8.688 8.688 0 003.132.558zm23.764-17.118c1.68 0 3.024.414 4.032 1.242 1.008.816 1.734 1.968 2.178 3.456.444 1.476.666 3.216.666 5.22 0 1.92-.27 3.63-.81 5.13s-1.35 2.682-2.43 3.546c-1.08.852-2.436 1.278-4.068 1.278-2.04 0-3.684-.72-4.932-2.16v8.982l-3.456.414V63.028h2.97l.252 2.556c1.464-2.004 3.33-3.006 5.598-3.006zm-.882 2.718c-.984 0-1.854.3-2.61.9a8.253 8.253 0 00-1.872 2.016v9.18a5.45 5.45 0 001.764 1.674c.696.396 1.47.594 2.322.594 1.488 0 2.61-.576 3.366-1.728.756-1.164 1.134-2.976 1.134-5.436s-.336-4.272-1.008-5.436c-.672-1.176-1.704-1.764-3.096-1.764z"/><path fill="#56D279" d="M128.454 111.864l-.594-9.468h4.05l-.576 9.468h-2.88zm6.156 0l-.576-9.468h4.05l-.594 9.468h-2.88zm27.202-7.668v2.79h-5.454v19.206h5.454V129h-14.508v-2.808h5.454v-19.206h-5.454v-2.79h14.508zm6.97 24.804v-18.972h2.97l.252 2.556a7.801 7.801 0 012.844-2.232c1.128-.516 2.25-.774 3.366-.774 1.824 0 3.168.498 4.032 1.494.864.984 1.296 2.358 1.296 4.122V129h-3.456v-11.682c0-1.2-.072-2.172-.216-2.916-.132-.744-.414-1.284-.846-1.62-.432-.348-1.086-.522-1.962-.522a4.54 4.54 0 00-2.808.954c-.84.636-1.512 1.32-2.016 2.052V129h-3.456zm57.572 0h-4.608l-2.322-13.734L216.922 129h-4.5l-3.366-18.972h3.438l2.232 16.83 2.862-14.418h3.78l2.682 14.418 2.232-16.83h3.294L226.354 129zm10.642-26.946v10.44a7.417 7.417 0 012.718-2.178c1.068-.492 2.154-.738 3.258-.738 1.824 0 3.168.498 4.032 1.494.864.984 1.296 2.358 1.296 4.122V129h-3.456v-13.5c0-1.14-.246-1.962-.738-2.466-.48-.516-1.248-.774-2.304-.774-1.008 0-1.938.318-2.79.954-.84.636-1.512 1.326-2.016 2.07V129h-3.456v-26.568l3.456-.378zm25.492-1.098c.72 0 1.296.222 1.728.666.444.444.666.984.666 1.62 0 .66-.222 1.218-.666 1.674-.432.444-1.008.666-1.728.666-.708 0-1.284-.222-1.728-.666-.432-.456-.648-1.014-.648-1.674 0-.636.216-1.176.648-1.62.444-.444 1.02-.666 1.728-.666zm2.574 9.072v16.344h5.274V129h-14.508v-2.628h5.777v-13.716h-5.597v-2.628h9.054zm20.469 16.506c.924 0 1.782-.15 2.574-.45a10.4 10.4 0 002.25-1.206l1.656 2.25c-.84.696-1.848 1.26-3.024 1.692-1.164.42-2.334.63-3.51.63-1.908 0-3.54-.408-4.896-1.224-1.344-.816-2.37-1.962-3.078-3.438-.708-1.476-1.062-3.204-1.062-5.184 0-1.92.354-3.63 1.062-5.13.72-1.512 1.758-2.706 3.114-3.582 1.356-.876 2.994-1.314 4.914-1.314 2.472 0 4.62.744 6.444 2.232l-1.638 2.25c-1.596-1.104-3.192-1.656-4.788-1.656-1.584 0-2.88.588-3.888 1.764-1.008 1.176-1.512 2.988-1.512 5.436 0 2.46.504 4.23 1.512 5.31 1.02 1.08 2.31 1.62 3.87 1.62zm16.222-24.48v10.44a7.417 7.417 0 012.718-2.178c1.068-.492 2.154-.738 3.258-.738 1.824 0 3.168.498 4.032 1.494.864.984 1.296 2.358 1.296 4.122V129h-3.456v-13.5c0-1.14-.246-1.962-.738-2.466-.48-.516-1.248-.774-2.304-.774-1.008 0-1.938.318-2.79.954-.84.636-1.512 1.326-2.016 2.07V129h-3.456v-26.568l3.456-.378zm48.806 5.112V129h-3.564v-21.834h-7.632v-2.97h18.954l-.378 2.97h-7.38zm15.952-5.112v10.44a7.417 7.417 0 012.718-2.178c1.068-.492 2.154-.738 3.258-.738 1.824 0 3.168.498 4.032 1.494.864.984 1.296 2.358 1.296 4.122V129h-3.456v-13.5c0-1.14-.246-1.962-.738-2.466-.48-.516-1.248-.774-2.304-.774-1.008 0-1.938.318-2.79.954-.84.636-1.512 1.326-2.016 2.07V129h-3.456v-26.568l3.456-.378zm25.528 7.524c2.712 0 4.77.9 6.174 2.7 1.416 1.8 2.124 4.206 2.124 7.218 0 1.956-.324 3.684-.972 5.184-.636 1.5-1.572 2.67-2.808 3.51-1.236.84-2.754 1.26-4.554 1.26-2.712 0-4.782-.9-6.21-2.7-1.416-1.8-2.124-4.206-2.124-7.218 0-1.968.318-3.696.954-5.184.648-1.5 1.59-2.67 2.826-3.51 1.248-.84 2.778-1.26 4.59-1.26zm0 2.754c-1.56 0-2.736.588-3.528 1.764-.792 1.164-1.188 2.976-1.188 5.436 0 2.436.39 4.242 1.17 5.418.78 1.164 1.95 1.746 3.51 1.746 1.56 0 2.73-.582 3.51-1.746.78-1.176 1.17-2.994 1.17-5.454 0-2.448-.39-4.254-1.17-5.418-.78-1.164-1.938-1.746-3.474-1.746zm26.95-2.754a3.94 3.94 0 011.818.432c.576.288 1.038.816 1.386 1.584.348.756.522 1.854.522 3.294V129h-3.15v-13.608c0-1.104-.072-1.896-.216-2.376-.132-.492-.516-.738-1.152-.738-.528 0-1.056.162-1.584.486-.516.324-1.02.864-1.512 1.62V129h-3.024v-13.608c0-1.104-.072-1.896-.216-2.376-.132-.492-.516-.738-1.152-.738-.54 0-1.068.162-1.584.486-.516.324-1.02.864-1.512 1.62V129h-3.15v-18.972h2.664l.216 2.124a8.82 8.82 0 011.746-1.836c.648-.492 1.434-.738 2.358-.738.72 0 1.386.174 1.998.522.624.348 1.08.996 1.368 1.944.516-.732 1.104-1.326 1.764-1.782.66-.456 1.464-.684 2.412-.684zm22.81 15.066c0 .756.12 1.308.36 1.656.24.336.618.588 1.134.756l-.81 2.376c-.864-.108-1.62-.366-2.268-.774-.636-.408-1.104-1.032-1.404-1.872a6.355 6.355 0 01-2.592 1.998c-1.044.444-2.178.666-3.402.666-1.908 0-3.414-.54-4.518-1.62-1.104-1.08-1.656-2.502-1.656-4.266 0-1.968.768-3.48 2.304-4.536 1.548-1.068 3.768-1.602 6.66-1.602h2.754v-1.44c0-1.308-.39-2.238-1.17-2.79-.768-.552-1.842-.828-3.222-.828-.636 0-1.386.078-2.25.234-.852.156-1.764.402-2.736.738l-.882-2.52a18.606 18.606 0 013.366-.954 17.336 17.336 0 013.024-.288c2.436 0 4.26.558 5.472 1.674 1.224 1.116 1.836 2.634 1.836 4.554v8.838zm-8.01 2.214c.876 0 1.722-.228 2.538-.684a5.63 5.63 0 002.034-1.908v-4.59h-2.52c-2.004 0-3.426.342-4.266 1.026-.84.672-1.26 1.596-1.26 2.772 0 2.256 1.158 3.384 3.474 3.384zm22.252-.162c1.38 0 2.466-.252 3.258-.756.804-.504 1.206-1.188 1.206-2.052 0-.552-.108-1.02-.324-1.404-.204-.396-.636-.756-1.296-1.08-.648-.336-1.632-.672-2.952-1.008-1.296-.324-2.424-.702-3.384-1.134-.948-.432-1.686-.996-2.214-1.692-.516-.696-.774-1.596-.774-2.7 0-1.608.672-2.892 2.016-3.852 1.344-.96 3.126-1.44 5.346-1.44 1.56 0 2.916.21 4.068.63 1.152.408 2.136.912 2.952 1.512l-1.476 2.25a11.28 11.28 0 00-2.412-1.188c-.864-.324-1.884-.486-3.06-.486-1.404 0-2.406.216-3.006.648-.588.42-.882.978-.882 1.674 0 .528.144.966.432 1.314.3.336.81.648 1.53.936.72.276 1.716.588 2.988.936 1.236.336 2.316.732 3.24 1.188.924.456 1.638 1.056 2.142 1.8.516.732.774 1.698.774 2.898 0 1.356-.39 2.46-1.17 3.312-.78.84-1.794 1.458-3.042 1.854-1.236.396-2.556.594-3.96.594-1.728 0-3.216-.252-4.464-.756-1.236-.504-2.274-1.122-3.114-1.854l1.908-2.196a9.317 9.317 0 002.538 1.494 8.688 8.688 0 003.132.558zm50.93 2.304h-4.608l-2.322-13.734L497.539 129h-4.5l-3.366-18.972h3.438l2.232 16.83 2.862-14.418h3.78l2.682 14.418 2.232-16.83h3.294L506.971 129zm7.366 0v-2.556h2.88v-13.86h-2.88v-2.556h5.526l.63 4.446c.72-1.572 1.602-2.778 2.646-3.618 1.056-.852 2.424-1.278 4.104-1.278.552 0 1.038.042 1.458.126.432.084.87.192 1.314.324l-.54 6.66h-2.664v-3.96h-.018c-2.844 0-4.884 2.034-6.12 6.102v7.614h3.852V129h-10.188zm28.768-28.044c.72 0 1.296.222 1.728.666.444.444.666.984.666 1.62 0 .66-.222 1.218-.666 1.674-.432.444-1.008.666-1.728.666-.708 0-1.284-.222-1.728-.666-.432-.456-.648-1.014-.648-1.674 0-.636.216-1.176.648-1.62.444-.444 1.02-.666 1.728-.666zm2.574 9.072v16.344h5.274V129h-14.508v-2.628h5.778v-13.716h-5.598v-2.628h9.054zm27.058 18c-.672.432-1.482.774-2.43 1.026a10.43 10.43 0 01-2.844.396c-2.112 0-3.732-.552-4.86-1.656-1.116-1.104-1.674-2.538-1.674-4.302V112.62h-4.302v-2.592h4.302v-4.284l3.456-.414v4.698h6.48l-.396 2.592h-6.084v10.836c0 1.044.264 1.83.792 2.358.54.528 1.434.792 2.682.792.696 0 1.338-.078 1.926-.234a7.83 7.83 0 001.656-.666l1.296 2.322zm8.968-7.344c.096 2.088.66 3.606 1.692 4.554 1.044.948 2.28 1.422 3.708 1.422.948 0 1.818-.144 2.61-.432.792-.288 1.596-.708 2.412-1.26l1.566 2.178c-.888.708-1.914 1.272-3.078 1.692a10.86 10.86 0 01-3.618.612c-1.896 0-3.51-.414-4.842-1.242-1.32-.84-2.328-2.004-3.024-3.492-.684-1.488-1.026-3.216-1.026-5.184 0-1.908.342-3.612 1.026-5.112.696-1.5 1.674-2.682 2.934-3.546 1.26-.864 2.76-1.296 4.5-1.296 2.448 0 4.374.84 5.778 2.52 1.416 1.668 2.124 3.954 2.124 6.858 0 .324-.006.636-.018.936-.012.3-.03.564-.054.792h-12.69zm4.896-8.406c-1.356 0-2.478.48-3.366 1.44-.888.96-1.398 2.442-1.53 4.446h9.432c-.036-1.92-.456-3.378-1.26-4.374-.792-1.008-1.884-1.512-3.276-1.512zm20.542 14.418c1.38 0 2.466-.252 3.258-.756.804-.504 1.206-1.188 1.206-2.052 0-.552-.108-1.02-.324-1.404-.204-.396-.636-.756-1.296-1.08-.648-.336-1.632-.672-2.952-1.008-1.296-.324-2.424-.702-3.384-1.134-.948-.432-1.686-.996-2.214-1.692-.516-.696-.774-1.596-.774-2.7 0-1.608.672-2.892 2.016-3.852 1.344-.96 3.126-1.44 5.346-1.44 1.56 0 2.916.21 4.068.63 1.152.408 2.136.912 2.952 1.512l-1.476 2.25a11.28 11.28 0 00-2.412-1.188c-.864-.324-1.884-.486-3.06-.486-1.404 0-2.406.216-3.006.648-.588.42-.882.978-.882 1.674 0 .528.144.966.432 1.314.3.336.81.648 1.53.936.72.276 1.716.588 2.988.936 1.236.336 2.316.732 3.24 1.188.924.456 1.638 1.056 2.142 1.8.516.732.774 1.698.774 2.898 0 1.356-.39 2.46-1.17 3.312-.78.84-1.794 1.458-3.042 1.854-1.236.396-2.556.594-3.96.594-1.728 0-3.216-.252-4.464-.756-1.236-.504-2.274-1.122-3.114-1.854l1.908-2.196a9.317 9.317 0 002.538 1.494 8.688 8.688 0 003.132.558zm39.985-24.642v10.44a7.417 7.417 0 012.718-2.178c1.068-.492 2.154-.738 3.258-.738 1.824 0 3.168.498 4.032 1.494.864.984 1.296 2.358 1.296 4.122V129h-3.456v-13.5c0-1.14-.246-1.962-.738-2.466-.48-.516-1.248-.774-2.304-.774-1.008 0-1.938.318-2.79.954-.84.636-1.512 1.326-2.016 2.07V129h-3.456v-26.568l3.456-.378zm25.492-1.098c.72 0 1.296.222 1.728.666.444.444.666.984.666 1.62 0 .66-.222 1.218-.666 1.674-.432.444-1.008.666-1.728.666-.708 0-1.284-.222-1.728-.666-.432-.456-.648-1.014-.648-1.674 0-.636.216-1.176.648-1.62.444-.444 1.02-.666 1.728-.666zm2.574 9.072v16.344h5.274V129H665.96v-2.628h5.778v-13.716h-5.598v-2.628h9.054zm18.292 16.668c1.38 0 2.466-.252 3.258-.756.804-.504 1.206-1.188 1.206-2.052 0-.552-.108-1.02-.324-1.404-.204-.396-.636-.756-1.296-1.08-.648-.336-1.632-.672-2.952-1.008-1.296-.324-2.424-.702-3.384-1.134-.948-.432-1.686-.996-2.214-1.692-.516-.696-.774-1.596-.774-2.7 0-1.608.672-2.892 2.016-3.852 1.344-.96 3.126-1.44 5.346-1.44 1.56 0 2.916.21 4.068.63 1.152.408 2.136.912 2.952 1.512l-1.476 2.25a11.28 11.28 0 00-2.412-1.188c-.864-.324-1.884-.486-3.06-.486-1.404 0-2.406.216-3.006.648-.588.42-.882.978-.882 1.674 0 .528.144.966.432 1.314.3.336.81.648 1.53.936.72.276 1.716.588 2.988.936 1.236.336 2.316.732 3.24 1.188.924.456 1.638 1.056 2.142 1.8.516.732.774 1.698.774 2.898 0 1.356-.39 2.46-1.17 3.312-.78.84-1.794 1.458-3.042 1.854-1.236.396-2.556.594-3.96.594-1.728 0-3.216-.252-4.464-.756-1.236-.504-2.274-1.122-3.114-1.854l1.908-2.196a9.317 9.317 0 002.538 1.494 8.688 8.688 0 003.132.558zm47.888-24.714c1.08 0 2.052.096 2.916.288.864.18 1.68.438 2.448.774l-1.08 2.484a8.098 8.098 0 00-1.962-.594 11.09 11.09 0 00-2.106-.198c-2.568 0-3.852 1.026-3.852 3.078v3.636h6.408l-.378 2.628h-6.03V129H734.3v-14.922h-4.446v-2.628h4.446v-3.618c0-1.176.3-2.202.9-3.078.612-.876 1.446-1.554 2.502-2.034 1.068-.492 2.292-.738 3.672-.738zm17.59-1.026c.72 0 1.296.222 1.728.666.444.444.666.984.666 1.62 0 .66-.222 1.218-.666 1.674-.432.444-1.008.666-1.728.666-.708 0-1.284-.222-1.728-.666-.432-.456-.648-1.014-.648-1.674 0-.636.216-1.176.648-1.62.444-.444 1.02-.666 1.728-.666zm2.574 9.072v16.344h5.274V129h-14.508v-2.628h5.778v-13.716h-5.598v-2.628h9.054zM773.368 129v-2.556h2.88v-13.86h-2.88v-2.556h5.526l.63 4.446c.72-1.572 1.602-2.778 2.646-3.618 1.056-.852 2.424-1.278 4.104-1.278.552 0 1.038.042 1.458.126.432.084.87.192 1.314.324l-.54 6.66h-2.664v-3.96h-.018c-2.844 0-4.884 2.034-6.12 6.102v7.614h3.852V129h-10.188zm28.048-2.304c1.38 0 2.466-.252 3.258-.756.804-.504 1.206-1.188 1.206-2.052 0-.552-.108-1.02-.324-1.404-.204-.396-.636-.756-1.296-1.08-.648-.336-1.632-.672-2.952-1.008-1.296-.324-2.424-.702-3.384-1.134-.948-.432-1.686-.996-2.214-1.692-.516-.696-.774-1.596-.774-2.7 0-1.608.672-2.892 2.016-3.852 1.344-.96 3.126-1.44 5.346-1.44 1.56 0 2.916.21 4.068.63 1.152.408 2.136.912 2.952 1.512l-1.476 2.25a11.28 11.28 0 00-2.412-1.188c-.864-.324-1.884-.486-3.06-.486-1.404 0-2.406.216-3.006.648-.588.42-.882.978-.882 1.674 0 .528.144.966.432 1.314.3.336.81.648 1.53.936.72.276 1.716.588 2.988.936 1.236.336 2.316.732 3.24 1.188.924.456 1.638 1.056 2.142 1.8.516.732.774 1.698.774 2.898 0 1.356-.39 2.46-1.17 3.312-.78.84-1.794 1.458-3.042 1.854-1.236.396-2.556.594-3.96.594-1.728 0-3.216-.252-4.464-.756-1.236-.504-2.274-1.122-3.114-1.854l1.908-2.196a9.317 9.317 0 002.538 1.494 8.688 8.688 0 003.132.558zm30.352 1.332c-.672.432-1.482.774-2.43 1.026a10.43 10.43 0 01-2.844.396c-2.112 0-3.732-.552-4.86-1.656-1.116-1.104-1.674-2.538-1.674-4.302V112.62h-4.302v-2.592h4.302v-4.284l3.456-.414v4.698h6.48l-.396 2.592h-6.084v10.836c0 1.044.264 1.83.792 2.358.54.528 1.434.792 2.682.792.696 0 1.338-.078 1.926-.234a7.83 7.83 0 001.656-.666l1.296 2.322zm31.22-15.624c.672-.888 1.458-1.578 2.358-2.07a6.04 6.04 0 012.97-.756c1.68 0 3.042.414 4.086 1.242 1.044.816 1.806 1.968 2.286 3.456.48 1.476.72 3.216.72 5.22 0 1.92-.288 3.63-.864 5.13-.576 1.5-1.422 2.682-2.538 3.546-1.116.852-2.49 1.278-4.122 1.278-2.172 0-3.87-.792-5.094-2.376l-.216 1.926h-3.042v-26.604l3.456-.414v10.422zm4.05 14.328c1.488 0 2.634-.588 3.438-1.764.816-1.188 1.224-3.012 1.224-5.472 0-2.46-.366-4.272-1.098-5.436-.72-1.176-1.764-1.764-3.132-1.764-.984 0-1.854.3-2.61.9a8.253 8.253 0 00-1.872 2.016v9.18c.48.72 1.068 1.29 1.764 1.71.696.42 1.458.63 2.286.63zm21.442-25.776c.72 0 1.296.222 1.728.666.444.444.666.984.666 1.62 0 .66-.222 1.218-.666 1.674-.432.444-1.008.666-1.728.666-.708 0-1.284-.222-1.728-.666-.432-.456-.648-1.014-.648-1.674 0-.636.216-1.176.648-1.62.444-.444 1.02-.666 1.728-.666zm2.574 9.072v16.344h5.274V129H881.82v-2.628h5.778v-13.716H882v-2.628h9.054zm27.058 18c-.672.432-1.482.774-2.43 1.026a10.43 10.43 0 01-2.844.396c-2.112 0-3.732-.552-4.86-1.656-1.116-1.104-1.674-2.538-1.674-4.302V112.62h-4.302v-2.592h4.302v-4.284l3.456-.414v4.698h6.48l-.396 2.592h-6.084v10.836c0 1.044.264 1.83.792 2.358.54.528 1.434.792 2.682.792.696 0 1.338-.078 1.926-.234a7.83 7.83 0 001.656-.666l1.296 2.322zm-785.104 28.55c2.712 0 4.77.9 6.174 2.7 1.416 1.8 2.124 4.206 2.124 7.218 0 1.956-.324 3.684-.972 5.184-.636 1.5-1.572 2.67-2.808 3.51-1.236.84-2.754 1.26-4.554 1.26-2.712 0-4.782-.9-6.21-2.7-1.416-1.8-2.124-4.206-2.124-7.218 0-1.968.318-3.696.954-5.184.648-1.5 1.59-2.67 2.826-3.51 1.248-.84 2.778-1.26 4.59-1.26zm0 2.754c-1.56 0-2.736.588-3.528 1.764-.792 1.164-1.188 2.976-1.188 5.436 0 2.436.39 4.242 1.17 5.418.78 1.164 1.95 1.746 3.51 1.746 1.56 0 2.73-.582 3.51-1.746.78-1.176 1.17-2.994 1.17-5.454 0-2.448-.39-4.254-1.17-5.418-.78-1.164-1.938-1.746-3.474-1.746zm25.546-10.35c1.08 0 2.052.096 2.916.288.864.18 1.68.438 2.448.774l-1.08 2.484a8.098 8.098 0 00-1.962-.594 11.09 11.09 0 00-2.106-.198c-2.568 0-3.852 1.026-3.852 3.078v3.636h6.408l-.378 2.628h-6.03V176h-3.438v-14.922h-4.446v-2.628h4.446v-3.618c0-1.176.3-2.202.9-3.078.612-.876 1.446-1.554 2.502-2.034 1.068-.492 2.292-.738 3.672-.738zm36.278 5.022v7.974h9.108v2.826h-9.108v8.406h11.142V176H191.25v-24.804h14.454l-.414 2.808h-10.458zm29.884 2.574a3.94 3.94 0 011.818.432c.576.288 1.038.816 1.386 1.584.348.756.522 1.854.522 3.294V176h-3.15v-13.608c0-1.104-.072-1.896-.216-2.376-.132-.492-.516-.738-1.152-.738-.528 0-1.056.162-1.584.486-.516.324-1.02.864-1.512 1.62V176h-3.024v-13.608c0-1.104-.072-1.896-.216-2.376-.132-.492-.516-.738-1.152-.738-.54 0-1.068.162-1.584.486-.516.324-1.02.864-1.512 1.62V176h-3.15v-18.972h2.664l.216 2.124a8.82 8.82 0 011.746-1.836c.648-.492 1.434-.738 2.358-.738.72 0 1.386.174 1.998.522.624.348 1.08.996 1.368 1.944.516-.732 1.104-1.326 1.764-1.782.66-.456 1.464-.684 2.412-.684zm22.81 15.066c0 .756.12 1.308.36 1.656.24.336.618.588 1.134.756l-.81 2.376c-.864-.108-1.62-.366-2.268-.774-.636-.408-1.104-1.032-1.404-1.872a6.355 6.355 0 01-2.592 1.998c-1.044.444-2.178.666-3.402.666-1.908 0-3.414-.54-4.518-1.62-1.104-1.08-1.656-2.502-1.656-4.266 0-1.968.768-3.48 2.304-4.536 1.548-1.068 3.768-1.602 6.66-1.602h2.754v-1.44c0-1.308-.39-2.238-1.17-2.79-.768-.552-1.842-.828-3.222-.828-.636 0-1.386.078-2.25.234-.852.156-1.764.402-2.736.738l-.882-2.52a18.606 18.606 0 013.366-.954 17.336 17.336 0 013.024-.288c2.436 0 4.26.558 5.472 1.674 1.224 1.116 1.836 2.634 1.836 4.554v8.838zm-8.01 2.214c.876 0 1.722-.228 2.538-.684a5.63 5.63 0 002.034-1.908v-4.59h-2.52c-2.004 0-3.426.342-4.266 1.026-.84.672-1.26 1.596-1.26 2.772 0 2.256 1.158 3.384 3.474 3.384zm24.43-.324c.924 0 1.782-.15 2.574-.45a10.4 10.4 0 002.25-1.206l1.656 2.25c-.84.696-1.848 1.26-3.024 1.692-1.164.42-2.334.63-3.51.63-1.908 0-3.54-.408-4.896-1.224-1.344-.816-2.37-1.962-3.078-3.438-.708-1.476-1.062-3.204-1.062-5.184 0-1.92.354-3.63 1.062-5.13.72-1.512 1.758-2.706 3.114-3.582 1.356-.876 2.994-1.314 4.914-1.314 2.472 0 4.62.744 6.444 2.232l-1.638 2.25c-1.596-1.104-3.192-1.656-4.788-1.656-1.584 0-2.88.588-3.888 1.764-1.008 1.176-1.512 2.988-1.512 5.436 0 2.46.504 4.23 1.512 5.31 1.02 1.08 2.31 1.62 3.87 1.62zm19.407.162c1.38 0 2.466-.252 3.258-.756.804-.504 1.206-1.188 1.206-2.052 0-.552-.108-1.02-.324-1.404-.204-.396-.636-.756-1.296-1.08-.648-.336-1.632-.672-2.952-1.008-1.296-.324-2.424-.702-3.384-1.134-.948-.432-1.686-.996-2.214-1.692-.516-.696-.774-1.596-.774-2.7 0-1.608.672-2.892 2.016-3.852 1.344-.96 3.126-1.44 5.346-1.44 1.56 0 2.916.21 4.068.63 1.152.408 2.136.912 2.952 1.512l-1.476 2.25a11.28 11.28 0 00-2.412-1.188c-.864-.324-1.884-.486-3.06-.486-1.404 0-2.406.216-3.006.648-.588.42-.882.978-.882 1.674 0 .528.144.966.432 1.314.3.336.81.648 1.53.936.72.276 1.716.588 2.988.936 1.236.336 2.316.732 3.24 1.188.924.456 1.638 1.056 2.142 1.8.516.732.774 1.698.774 2.898 0 1.356-.39 2.46-1.17 3.312-.78.84-1.794 1.458-3.042 1.854-1.236.396-2.556.594-3.96.594-1.728 0-3.216-.252-4.464-.756-1.236-.504-2.274-1.122-3.114-1.854l1.908-2.196a9.317 9.317 0 002.538 1.494 8.688 8.688 0 003.132.558zM321.071 176v-24.804h3.582v21.708h11.232l-.396 3.096h-14.418zm27.76-28.044c.72 0 1.296.222 1.728.666.444.444.666.984.666 1.62 0 .66-.222 1.218-.666 1.674-.432.444-1.008.666-1.728.666-.708 0-1.284-.222-1.728-.666-.432-.456-.648-1.014-.648-1.674 0-.636.216-1.176.648-1.62.444-.444 1.02-.666 1.728-.666zm2.574 9.072v16.344h5.274V176h-14.508v-2.628h5.778v-13.716h-5.598v-2.628h9.054zm18.292 16.668c1.38 0 2.466-.252 3.258-.756.804-.504 1.206-1.188 1.206-2.052 0-.552-.108-1.02-.324-1.404-.204-.396-.636-.756-1.296-1.08-.648-.336-1.632-.672-2.952-1.008-1.296-.324-2.424-.702-3.384-1.134-.948-.432-1.686-.996-2.214-1.692-.516-.696-.774-1.596-.774-2.7 0-1.608.672-2.892 2.016-3.852 1.344-.96 3.126-1.44 5.346-1.44 1.56 0 2.916.21 4.068.63 1.152.408 2.136.912 2.952 1.512l-1.476 2.25a11.28 11.28 0 00-2.412-1.188c-.864-.324-1.884-.486-3.06-.486-1.404 0-2.406.216-3.006.648-.588.42-.882.978-.882 1.674 0 .528.144.966.432 1.314.3.336.81.648 1.53.936.72.276 1.716.588 2.988.936 1.236.336 2.316.732 3.24 1.188.924.456 1.638 1.056 2.142 1.8.516.732.774 1.698.774 2.898 0 1.356-.39 2.46-1.17 3.312-.78.84-1.794 1.458-3.042 1.854-1.236.396-2.556.594-3.96.594-1.728 0-3.216-.252-4.464-.756-1.236-.504-2.274-1.122-3.114-1.854l1.908-2.196a9.317 9.317 0 002.538 1.494 8.688 8.688 0 003.132.558zm23.764-17.118c1.68 0 3.024.414 4.032 1.242 1.008.816 1.734 1.968 2.178 3.456.444 1.476.666 3.216.666 5.22 0 1.92-.27 3.63-.81 5.13s-1.35 2.682-2.43 3.546c-1.08.852-2.436 1.278-4.068 1.278-2.04 0-3.684-.72-4.932-2.16v8.982l-3.456.414v-26.658h2.97l.252 2.556c1.464-2.004 3.33-3.006 5.598-3.006zm-.882 2.718c-.984 0-1.854.3-2.61.9a8.253 8.253 0 00-1.872 2.016v9.18a5.45 5.45 0 001.764 1.674c.696.396 1.47.594 2.322.594 1.488 0 2.61-.576 3.366-1.728.756-1.164 1.134-2.976 1.134-5.436s-.336-4.272-1.008-5.436c-.672-1.176-1.704-1.764-3.096-1.764zm46.592-10.314c1.08 0 2.052.096 2.916.288.864.18 1.68.438 2.448.774l-1.08 2.484a8.098 8.098 0 00-1.962-.594 11.09 11.09 0 00-2.106-.198c-2.568 0-3.852 1.026-3.852 3.078v3.636h6.408l-.378 2.628h-6.03V176h-3.438v-14.922h-4.446v-2.628h4.446v-3.618c0-1.176.3-2.202.9-3.078.612-.876 1.446-1.554 2.502-2.034 1.068-.492 2.292-.738 3.672-.738zM449.579 176v-2.556h2.88v-13.86h-2.88v-2.556h5.526l.63 4.446c.72-1.572 1.602-2.778 2.646-3.618 1.056-.852 2.424-1.278 4.104-1.278.552 0 1.038.042 1.458.126.432.084.87.192 1.314.324l-.54 6.66h-2.664v-3.96h-.018c-2.844 0-4.884 2.034-6.12 6.102v7.614h3.852V176h-10.188zm28.804-19.422c2.712 0 4.77.9 6.174 2.7 1.416 1.8 2.124 4.206 2.124 7.218 0 1.956-.324 3.684-.972 5.184-.636 1.5-1.572 2.67-2.808 3.51-1.236.84-2.754 1.26-4.554 1.26-2.712 0-4.782-.9-6.21-2.7-1.416-1.8-2.124-4.206-2.124-7.218 0-1.968.318-3.696.954-5.184.648-1.5 1.59-2.67 2.826-3.51 1.248-.84 2.778-1.26 4.59-1.26zm0 2.754c-1.56 0-2.736.588-3.528 1.764-.792 1.164-1.188 2.976-1.188 5.436 0 2.436.39 4.242 1.17 5.418.78 1.164 1.95 1.746 3.51 1.746 1.56 0 2.73-.582 3.51-1.746.78-1.176 1.17-2.994 1.17-5.454 0-2.448-.39-4.254-1.17-5.418-.78-1.164-1.938-1.746-3.474-1.746zm26.95-2.754a3.94 3.94 0 011.818.432c.576.288 1.038.816 1.386 1.584.348.756.522 1.854.522 3.294V176h-3.15v-13.608c0-1.104-.072-1.896-.216-2.376-.132-.492-.516-.738-1.152-.738-.528 0-1.056.162-1.584.486-.516.324-1.02.864-1.512 1.62V176h-3.024v-13.608c0-1.104-.072-1.896-.216-2.376-.132-.492-.516-.738-1.152-.738-.54 0-1.068.162-1.584.486-.516.324-1.02.864-1.512 1.62V176h-3.15v-18.972h2.664l.216 2.124a8.82 8.82 0 011.746-1.836c.648-.492 1.434-.738 2.358-.738.72 0 1.386.174 1.998.522.624.348 1.08.996 1.368 1.944.516-.732 1.104-1.326 1.764-1.782.66-.456 1.464-.684 2.412-.684zm45.818 18.45c-.672.432-1.482.774-2.43 1.026a10.43 10.43 0 01-2.844.396c-2.112 0-3.732-.552-4.86-1.656-1.116-1.104-1.674-2.538-1.674-4.302V159.62h-4.302v-2.592h4.302v-4.284l3.456-.414v4.698h6.48l-.396 2.592h-6.084v10.836c0 1.044.264 1.83.792 2.358.54.528 1.434.792 2.682.792.696 0 1.338-.078 1.926-.234a7.83 7.83 0 001.656-.666l1.296 2.322zm9.634-25.974v10.44a7.417 7.417 0 012.718-2.178c1.068-.492 2.154-.738 3.258-.738 1.824 0 3.168.498 4.032 1.494.864.984 1.296 2.358 1.296 4.122V176h-3.456v-13.5c0-1.14-.246-1.962-.738-2.466-.48-.516-1.248-.774-2.304-.774-1.008 0-1.938.318-2.79.954-.84.636-1.512 1.326-2.016 2.07V176h-3.456v-26.568l3.456-.378zm20.92 18.63c.096 2.088.66 3.606 1.692 4.554 1.044.948 2.28 1.422 3.708 1.422.948 0 1.818-.144 2.61-.432.792-.288 1.596-.708 2.412-1.26l1.566 2.178c-.888.708-1.914 1.272-3.078 1.692a10.86 10.86 0 01-3.618.612c-1.896 0-3.51-.414-4.842-1.242-1.32-.84-2.328-2.004-3.024-3.492-.684-1.488-1.026-3.216-1.026-5.184 0-1.908.342-3.612 1.026-5.112.696-1.5 1.674-2.682 2.934-3.546 1.26-.864 2.76-1.296 4.5-1.296 2.448 0 4.374.84 5.778 2.52 1.416 1.668 2.124 3.954 2.124 6.858 0 .324-.006.636-.018.936-.012.3-.03.564-.054.792h-12.69zm4.896-8.406c-1.356 0-2.478.48-3.366 1.44-.888.96-1.398 2.442-1.53 4.446h9.432c-.036-1.92-.456-3.378-1.26-4.374-.792-1.008-1.884-1.512-3.276-1.512zm51.145-4.446l1.008 3.06c-.792.252-1.644.414-2.556.486-.9.072-1.896.108-2.988.108 2.244 1.008 3.366 2.604 3.366 4.788 0 1.872-.648 3.414-1.944 4.626-1.284 1.212-3.066 1.818-5.346 1.818-.6 0-1.11-.024-1.53-.072-.42-.06-.822-.15-1.206-.27-.612.432-.918 1.008-.918 1.728 0 .42.168.78.504 1.08.336.288.99.432 1.962.432h3.366c1.308 0 2.472.228 3.492.684 1.032.456 1.842 1.08 2.43 1.872.588.78.882 1.662.882 2.646 0 1.884-.804 3.33-2.412 4.338-1.596 1.02-3.876 1.53-6.84 1.53-2.088 0-3.732-.216-4.932-.648-1.188-.432-2.034-1.074-2.538-1.926-.492-.852-.738-1.92-.738-3.204h3.114c0 .708.138 1.29.414 1.746.276.468.78.81 1.512 1.026.732.228 1.788.342 3.168.342 2.04 0 3.51-.252 4.41-.756.9-.504 1.35-1.242 1.35-2.214 0-.852-.378-1.5-1.134-1.944-.756-.432-1.722-.648-2.898-.648h-3.33c-1.704 0-2.958-.36-3.762-1.08-.792-.72-1.188-1.56-1.188-2.52 0-1.332.696-2.454 2.088-3.366-2.148-1.128-3.222-2.886-3.222-5.274 0-1.296.324-2.442.972-3.438.66-1.008 1.572-1.794 2.736-2.358 1.164-.564 2.502-.846 4.014-.846 1.572 0 2.862-.072 3.87-.216 1.008-.144 1.878-.348 2.61-.612a26.24 26.24 0 002.214-.918zm-8.676 4.194c-1.428 0-2.49.396-3.186 1.188-.684.78-1.026 1.782-1.026 3.006 0 1.248.354 2.262 1.062 3.042.708.78 1.782 1.17 3.222 1.17 1.272 0 2.244-.372 2.916-1.116.672-.744 1.008-1.788 1.008-3.132 0-2.772-1.332-4.158-3.996-4.158zM643.852 176v-2.556h2.88v-13.86h-2.88v-2.556h5.526l.63 4.446c.72-1.572 1.602-2.778 2.646-3.618 1.056-.852 2.424-1.278 4.104-1.278.552 0 1.038.042 1.458.126.432.084.87.192 1.314.324l-.54 6.66h-2.664v-3.96h-.018c-2.844 0-4.884 2.034-6.12 6.102v7.614h3.852V176h-10.188zm28.804-19.422c2.712 0 4.77.9 6.174 2.7 1.416 1.8 2.124 4.206 2.124 7.218 0 1.956-.324 3.684-.972 5.184-.636 1.5-1.572 2.67-2.808 3.51-1.236.84-2.754 1.26-4.554 1.26-2.712 0-4.782-.9-6.21-2.7-1.416-1.8-2.124-4.206-2.124-7.218 0-1.968.318-3.696.954-5.184.648-1.5 1.59-2.67 2.826-3.51 1.248-.84 2.778-1.26 4.59-1.26zm0 2.754c-1.56 0-2.736.588-3.528 1.764-.792 1.164-1.188 2.976-1.188 5.436 0 2.436.39 4.242 1.17 5.418.78 1.164 1.95 1.746 3.51 1.746 1.56 0 2.73-.582 3.51-1.746.78-1.176 1.17-2.994 1.17-5.454 0-2.448-.39-4.254-1.17-5.418-.78-1.164-1.938-1.746-3.474-1.746zm17.644-2.304v13.356c0 1.2.24 2.064.72 2.592.492.516 1.248.774 2.268.774.96 0 1.878-.282 2.754-.846.888-.564 1.578-1.236 2.07-2.016v-13.86h3.456V176h-2.97l-.252-2.502a7.17 7.17 0 01-2.736 2.196c-1.08.504-2.178.756-3.294.756-1.836 0-3.21-.498-4.122-1.494-.9-.996-1.35-2.376-1.35-4.14v-13.788h3.456zM708.43 176v-18.972h2.97l.252 2.556a7.801 7.801 0 012.844-2.232c1.128-.516 2.25-.774 3.366-.774 1.824 0 3.168.498 4.032 1.494.864.984 1.296 2.358 1.296 4.122V176h-3.456v-11.682c0-1.2-.072-2.172-.216-2.916-.132-.744-.414-1.284-.846-1.62-.432-.348-1.086-.522-1.962-.522a4.54 4.54 0 00-2.808.954c-.84.636-1.512 1.32-2.016 2.052V176h-3.456zm32.854-27.018l3.456.414V176h-3.042l-.288-2.43c-1.344 1.92-3.132 2.88-5.364 2.88-1.632 0-2.982-.414-4.05-1.242-1.056-.84-1.842-2.004-2.358-3.492s-.774-3.216-.774-5.184c0-1.92.294-3.624.882-5.112.6-1.5 1.452-2.682 2.556-3.546 1.116-.864 2.46-1.296 4.032-1.296 2.04 0 3.69.72 4.95 2.16v-9.756zm-4.05 10.314c-1.488 0-2.64.594-3.456 1.782-.804 1.188-1.206 3.006-1.206 5.454 0 2.436.366 4.242 1.098 5.418.744 1.176 1.812 1.764 3.204 1.764.996 0 1.854-.282 2.574-.846a8.138 8.138 0 001.836-2.016v-9.27c-.492-.72-1.086-1.278-1.782-1.674a4.344 4.344 0 00-2.268-.612zm39.41-2.268v13.356c0 1.2.24 2.064.72 2.592.492.516 1.248.774 2.268.774.96 0 1.878-.282 2.754-.846.888-.564 1.578-1.236 2.07-2.016v-13.86h3.456V176h-2.97l-.252-2.502a7.17 7.17 0 01-2.736 2.196c-1.08.504-2.178.756-3.294.756-1.836 0-3.21-.498-4.122-1.494-.9-.996-1.35-2.376-1.35-4.14v-13.788h3.456zm26.95-.45c1.68 0 3.024.414 4.032 1.242 1.008.816 1.734 1.968 2.178 3.456.444 1.476.666 3.216.666 5.22 0 1.92-.27 3.63-.81 5.13s-1.35 2.682-2.43 3.546c-1.08.852-2.436 1.278-4.068 1.278-2.04 0-3.684-.72-4.932-2.16v8.982l-3.456.414v-26.658h2.97l.252 2.556c1.464-2.004 3.33-3.006 5.598-3.006zm-.882 2.718c-.984 0-1.854.3-2.61.9a8.253 8.253 0 00-1.872 2.016v9.18a5.45 5.45 0 001.764 1.674c.696.396 1.47.594 2.322.594 1.488 0 2.61-.576 3.366-1.728.756-1.164 1.134-2.976 1.134-5.436s-.336-4.272-1.008-5.436c-.672-1.176-1.704-1.764-3.096-1.764zm16.492-.432l-.594-9.468h4.05l-.576 9.468h-2.88zm6.156 0l-.576-9.468h4.05l-.594 9.468h-2.88z"/></svg>