<svg xmlns="http://www.w3.org/2000/svg" xmlns:xlink="http://www.w3.org/1999/xlink" viewBox="0,0,256,256" width="30px" height="30px" fill-rule="evenodd"><g fill="#22c1e6" fill-rule="evenodd" stroke="none" stroke-width="1" stroke-linecap="butt" stroke-linejoin="miter" stroke-miterlimit="10" stroke-dasharray="" stroke-dashoffset="0" font-family="none" font-weight="none" font-size="none" text-anchor="none" style="mix-blend-mode: normal"><g transform="scale(5.12,5.12)"><path d="M25,2c-12.696,0 -22.988,10.298 -22.988,23c0,11.663 8.677,21.296 19.923,22.796v-4.635c0,-1.307 -0.824,-2.481 -2.062,-2.897c-6.489,-2.181 -11.132,-8.387 -10.961,-15.653c0.208,-8.846 7.41,-15.8 16.253,-15.711c8.812,0.09 15.927,7.264 15.927,16.1c0,0.828 -0.064,1.656 -0.189,2.474c-1.97,12.985 -18.874,20.282 -18.966,20.322c1.002,0.134 2.024,0.204 3.063,0.204c12.696,0 22.989,-10.297 22.989,-23c0,-12.703 -10.293,-23 -22.989,-23"></path></g></g></svg>